<?xml version="1.0" encoding="utf-8"?>
<!-- Generator: Adobe Illustrator 24.2.3, SVG Export Plug-In . SVG Version: 6.00 Build 0)  -->
<svg version="1.1" id="Layer_1" xmlns="http://www.w3.org/2000/svg" xmlns:xlink="http://www.w3.org/1999/xlink" x="0px" y="0px"
	 viewBox="0 0 400 300" style="enable-background:new 0 0 400 300;" xml:space="preserve">
<style type="text/css">
	.st0{fill:#E8E8E8;}
	.st1{opacity:0.5;fill:#E8E8E8;}
	.st2{fill:#B5BFC7;}
	.st3{fill:#03A1FC;}
	.st4{fill:#131F2D;}
	.st5{fill:#FD7955;}
	.st6{fill:#364154;}
	.st7{fill:#026EB7;}
	.st8{fill:#ED6343;}
	.st9{fill:#FFFFFF;}
	.st10{fill:#9D462D;}
	.st11{fill:#A9C2FF;}
	.st12{fill:#214A80;}
	.st13{fill:#E8F2FA;}
</style>
<g>
	<path class="st0" d="M162.48,96.14l5.94-0.67c0.49-0.05,0.98,0.18,1.25,0.6c0.34,0.53,0.71,1.06,1.1,1.57
		c0.73,0.95,1.51,1.83,2.35,2.62c0.39,0.37,0.52,0.94,0.32,1.44l-2.28,5.81c-0.25,0.62,0.02,1.33,0.63,1.63l5.12,2.53
		c0.58,0.29,1.28,0.09,1.63-0.45l3.09-4.85c0.29-0.48,0.87-0.7,1.43-0.55c2.35,0.62,4.8,0.86,7.24,0.72
		c0.59-0.03,1.14,0.35,1.32,0.91l1.05,3.34c0.21,0.63,0.85,1.02,1.51,0.9l5.56-1.12c0.11-0.02,0.22-0.05,0.32-0.11
		c0.48-0.23,0.78-0.75,0.71-1.3l-0.49-4.44l-0.12-1.08c0.92-0.52,1.83-1.12,2.69-1.78c1.16-0.89,2.22-1.88,3.16-2.93
		c0.36-0.4,0.92-0.54,1.42-0.34l4.68,1.84c0.64,0.25,1.37-0.03,1.67-0.65l1.94-3.91l0.55-1.12c0.3-0.61,0.1-1.36-0.48-1.72
		l-4.05-2.59c-0.47-0.29-0.71-0.86-0.57-1.39c0.38-1.6,0.59-3.23,0.62-4.86c0.01-0.14,0.01-0.27,0.01-0.41c0-0.05,0-0.09,0.01-0.14
		c0.05-0.52,0.41-0.96,0.92-1.12l5.41-1.71c0.06-0.02,0.12-0.04,0.18-0.07c0.53-0.26,0.83-0.85,0.71-1.44l-1.11-5.54
		c-0.14-0.67-0.75-1.12-1.44-1.05l-6.19,0.7c-0.52,0.07-1.03-0.21-1.28-0.67c-0.56-1.02-1.2-2.01-1.94-2.97
		c-0.39-0.51-0.79-0.99-1.22-1.46c-0.34-0.38-0.44-0.92-0.25-1.39l2.19-5.59c0.24-0.61-0.03-1.32-0.62-1.62l-5.06-2.5
		c-0.61-0.3-1.35-0.1-1.73,0.48l-2.45,3.83c-0.33,0.51-0.96,0.73-1.53,0.54c-2.25-0.78-4.61-1.2-6.99-1.25
		c-0.56,0-1.06-0.38-1.23-0.92l-1.54-4.88c-0.21-0.65-0.88-1.05-1.55-0.92l-5.52,1.1c-0.66,0.13-1.11,0.76-1.03,1.42l0.03,0.26
		l0.58,5.15c0.06,0.55-0.22,1.07-0.71,1.33l-0.01,0c-1.18,0.61-2.33,1.33-3.42,2.18c-0.58,0.45-1.13,0.92-1.67,1.41
		c-0.37,0.35-0.9,0.45-1.36,0.27l-4.75-1.87c-0.65-0.26-1.39,0.03-1.69,0.65l-2.49,5.04c-0.07,0.14-0.11,0.3-0.13,0.44
		c-0.05,0.48,0.17,0.98,0.6,1.25l3.24,2.06c0.39,0.26,0.62,0.71,0.6,1.16c-0.01,0.12-0.03,0.24-0.07,0.36
		c-0.99,2.89-1.38,5.95-1.17,9c0.04,0.52-0.24,1-0.69,1.24c-0.06,0.03-0.13,0.06-0.21,0.08l-4.39,1.38
		c-0.64,0.2-1.02,0.85-0.89,1.51l0.02,0.13l1.08,5.4C161.16,95.76,161.79,96.22,162.48,96.14z M200.46,79.28
		c0.34,0.85,0.61,1.76,0.81,2.74c0.36,1.87-0.02,4.81-0.86,6.52c-0.09,0.18-0.18,0.36-0.28,0.54c-5.81,10.78-21.04,8.64-23.54-3.53
		c-0.33-1.59-0.12-3.91,0.45-5.68c0.14-0.41,0.29-0.79,0.45-1.12c0.78-1.55,1.74-2.84,2.83-3.9
		C186.57,68.84,197.02,70.81,200.46,79.28z"/>
	<path class="st0" d="M350.99,75.34c-5.7-11.49-25.43-3.62-25.43-3.62s-9.69,24.01-13.64,25.32c-3.95,1.31,4.28-22.14,4.28-22.14
		c-7.99,0.8-26.06,14.38-26.06,14.38s6.19,24.54,2.04,24.83c-4.15,0.3-4.37-22-4.37-22c-7.14,3.78-12.46,14.04-12.46,14.04
		c-5.99,16.18,15.09,23.03,15.09,23.03s1.96,8.55-1.39,19.47l0,0c0,0-0.84,2.06-1.44,5.4l2.07-0.41c0.06-0.59,0.14-1.16,0.24-1.72
		c0,0,0-0.01,0-0.01c0-0.01,0-0.02,0-0.02c0.08-0.35,0.19-0.84,0.34-1.45c0,0,0,0,0,0c0,0,0,0,0,0c0.39-1.36,0.63-2.36,0.77-3.07
		c0,0,0,0,0-0.01c1.12-4.26,2.84-9.86,4.45-11.28c0,0-0.29-0.28-0.63-0.86c0.2,0.27,0.41,0.56,0.63,0.86
		c5.05,6.88,23,4.63,32.47,0.65c9.46-3.98,4.61-5.91-1.6-9.37c-6.21-3.46-17.1-0.06-20.74-1.18c-3.64-1.12,0.81-3.84,7.49-4.64
		c6.68-0.8,11.27,5.12,22.09,4.02c10.82-1.1,14.95-22.69,14.95-22.69c-6.88,3.73-20.84,2.3-21.85-0.13s18.52-6.04,21.4-7.41
		C352.58,93.96,356.69,86.83,350.99,75.34z"/>
	<path class="st0" d="M25.4,163.64c-2.32-12.61,18.19-18.14,18.19-18.14s22.14,13.42,26.09,12.1c3.94-1.32-16.69-15.17-16.69-15.17
		c6.88-4.15,29.48-4.11,29.48-4.11s9.75,23.35,13.25,21.1c3.5-2.25-9.69-20.24-9.69-20.24c7.98-1.25,18.39,3.78,18.39,3.78
		c14.49,9.36,1.72,27.48,1.72,27.48s3.55,8.02,12.78,14.75l0,0c0,0,1.9,1.15,4.39,3.46l-1.9,0.91c-0.4-0.44-0.81-0.85-1.22-1.23
		c0,0,0-0.01-0.01-0.01c-0.01-0.01-0.01-0.01-0.02-0.02c-0.27-0.23-0.66-0.56-1.14-0.96c0,0,0,0,0,0c0,0,0,0,0,0
		c-1.13-0.86-1.92-1.51-2.46-2c0,0,0,0,0,0c-3.45-2.74-8.19-6.19-10.33-6.37c0,0,0.07-0.4-0.01-1.07c0,0.34,0.01,0.7,0.01,1.07
		c0.08,8.54-15.64,17.49-25.6,19.97c-9.96,2.48-7.23-1.97-4.34-8.46c2.9-6.49,13.66-10.29,15.9-13.37c2.24-3.08-2.95-2.59-8.78,0.77
		c-5.82,3.36-5.95,10.85-15.28,16.46c-9.32,5.61-25.56-9.21-25.56-9.21c7.75-1.14,18.06-10.65,17.41-13.19
		c-0.65-2.55-18.45,6.26-21.57,6.89C35.27,179.49,27.72,176.25,25.4,163.64z"/>
	<path class="st0" d="M363.15,244.58c10.09-7.91-1.61-25.64-1.61-25.64s-25.48-4.62-27.56-8.22c-2.08-3.6,22.55-0.3,22.55-0.3
		c-2.4-7.66-19.37-22.61-19.37-22.61s-22.77,11.04-23.9,7.04c-1.13-4,20.66-8.74,20.66-8.74c-5.15-6.22-16.28-9.35-16.28-9.35
		c-17.05-2.58-19.49,19.45-19.49,19.45s-7.97,3.65-19.35,2.59l0,0c0,0-2.19-0.4-5.58-0.32l0.82,1.94c0.59-0.06,1.17-0.1,1.73-0.11
		c0,0,0.01,0,0.01,0c0.01,0,0.02,0,0.02,0c0.36,0.01,0.86,0.02,1.49,0.03c0,0,0,0,0,0c0,0,0,0,0,0c1.41,0.1,2.44,0.14,3.17,0.13
		c0,0,0,0,0.01,0c4.4,0.24,10.23,0.79,11.95,2.07c0,0,0.21-0.34,0.71-0.79c-0.23,0.25-0.47,0.52-0.71,0.79
		c-5.72,6.34,0.13,23.47,5.95,31.92c5.82,8.46,6.72,3.32,8.85-3.47c2.13-6.78-3.41-16.76-3.05-20.55c0.36-3.79,3.93,0.02,6.07,6.39
		c2.14,6.38-2.73,12.08,0.54,22.45c3.27,10.38,25.25,10.04,25.25,10.04c-5.05-5.98-6.48-19.94-4.3-21.42
		c2.17-1.48,9.67,16.91,11.59,19.45C345.25,249.92,353.06,252.5,363.15,244.58z"/>
	<g>
		<path class="st1" d="M271.53,96.12c0,0,1.18-23.63,12.23-38.44c1.47-1.97,4.6-1,4.72,1.46c0,0.04,0,0.08,0.01,0.12
			C288.62,63.45,276.38,82.01,271.53,96.12z"/>
		<path class="st1" d="M270.53,102.93c0,0,9.95-30.12,29.5-44.48c1.19-0.88,2.9-0.71,3.82,0.45c0.6,0.75,0.93,1.98,0.45,3.95
			C303.02,68.11,281.42,87.02,270.53,102.93z"/>
	</g>
	<g>
		<path class="st1" d="M101.31,134.5c0,0-9.91-17.29-23.87-24.2c-1.85-0.92-3.84,1.01-2.99,2.9c0.01,0.03,0.03,0.06,0.04,0.1
			C76,116.49,92.27,125.76,101.31,134.5z"/>
		<path class="st1" d="M104.66,139.23c0,0-18.98-18.82-39.14-22.14c-1.23-0.2-2.45,0.58-2.7,1.8c-0.16,0.8,0.06,1.84,1.17,3.14
			C66.96,125.5,90.41,131.45,104.66,139.23z"/>
	</g>
	<path class="st2" d="M320.25,97.11v150.02c0,2.62-1.89,4.75-4.23,4.75H99.57c-2.34,0-4.23-2.13-4.23-4.75V97.11
		c0-2.63,1.89-4.75,4.23-4.75h216.45C318.35,92.36,320.25,94.49,320.25,97.11z"/>
	<g>
		<path class="st3" d="M309.55,88.55v12.17H67.99V88.55c0-2.51,2.04-4.54,4.54-4.54H305C307.51,84,309.55,86.04,309.55,88.55z"/>
		<g>
			<path class="st0" d="M75.38,92.36c0-1.17,0.95-2.12,2.12-2.12c1.17,0,2.12,0.95,2.12,2.12c0,1.17-0.95,2.12-2.12,2.12
				C76.33,94.47,75.38,93.53,75.38,92.36z"/>
			<path class="st0" d="M83.72,92.36c0-1.17,0.95-2.12,2.12-2.12c1.17,0,2.12,0.95,2.12,2.12c0,1.17-0.95,2.12-2.12,2.12
				C84.66,94.47,83.72,93.53,83.72,92.36z"/>
			<path class="st0" d="M92.26,92.36c0-1.17,0.95-2.12,2.12-2.12s2.12,0.95,2.12,2.12c0,1.17-0.95,2.12-2.12,2.12
				S92.26,93.53,92.26,92.36z"/>
		</g>
	</g>
	<path class="st0" d="M224.48,70.9l2.89-0.33c0.24-0.02,0.48,0.09,0.61,0.29c0.17,0.26,0.35,0.51,0.54,0.76
		c0.36,0.46,0.74,0.89,1.14,1.28c0.19,0.18,0.25,0.46,0.16,0.7l-1.11,2.83c-0.12,0.3,0.01,0.65,0.31,0.79l2.49,1.23
		c0.28,0.14,0.62,0.04,0.79-0.22l1.51-2.36c0.14-0.23,0.42-0.34,0.69-0.27c1.14,0.3,2.34,0.42,3.53,0.35
		c0.29-0.02,0.55,0.17,0.64,0.44l0.51,1.63c0.1,0.31,0.41,0.5,0.74,0.44l2.71-0.55c0.06-0.01,0.11-0.03,0.16-0.05
		c0.23-0.11,0.38-0.37,0.35-0.63l-0.24-2.16l-0.06-0.53c0.45-0.25,0.89-0.54,1.31-0.87c0.57-0.43,1.08-0.91,1.54-1.43
		c0.17-0.19,0.45-0.26,0.69-0.17l2.28,0.9c0.31,0.12,0.67-0.01,0.81-0.31l0.94-1.9l0.27-0.55c0.15-0.3,0.05-0.66-0.23-0.84
		l-1.97-1.26c-0.23-0.14-0.34-0.42-0.28-0.68c0.18-0.78,0.29-1.57,0.3-2.37c0.01-0.07,0.01-0.13,0.01-0.2c0-0.02,0-0.05,0-0.07
		c0.02-0.25,0.2-0.47,0.45-0.54l2.64-0.83c0.03-0.01,0.06-0.02,0.09-0.03c0.26-0.12,0.4-0.41,0.35-0.7l-0.54-2.7
		c-0.07-0.33-0.37-0.55-0.7-0.51l-3.02,0.34c-0.26,0.03-0.5-0.1-0.62-0.33c-0.27-0.5-0.59-0.98-0.94-1.44
		c-0.19-0.25-0.39-0.48-0.59-0.71c-0.17-0.18-0.22-0.45-0.12-0.68l1.06-2.72c0.12-0.3-0.01-0.64-0.3-0.79l-2.47-1.22
		c-0.3-0.15-0.66-0.05-0.84,0.23l-1.19,1.87c-0.16,0.25-0.47,0.36-0.75,0.26c-1.1-0.38-2.24-0.58-3.4-0.61
		c-0.27,0-0.52-0.18-0.6-0.45l-0.75-2.38c-0.1-0.32-0.43-0.51-0.75-0.45l-2.69,0.54c-0.32,0.06-0.54,0.37-0.5,0.69l0.01,0.13
		l0.28,2.51c0.03,0.27-0.11,0.52-0.35,0.65l0,0c-0.58,0.3-1.13,0.65-1.67,1.06c-0.28,0.22-0.55,0.45-0.81,0.69
		c-0.18,0.17-0.44,0.22-0.66,0.13l-2.31-0.91c-0.32-0.13-0.68,0.02-0.83,0.32l-1.21,2.46c-0.03,0.07-0.05,0.14-0.06,0.22
		c-0.02,0.23,0.08,0.48,0.29,0.61l1.58,1c0.19,0.12,0.3,0.34,0.29,0.57c0,0.06-0.01,0.12-0.03,0.18c-0.48,1.41-0.67,2.9-0.57,4.38
		c0.02,0.25-0.12,0.49-0.34,0.6c-0.03,0.02-0.06,0.03-0.1,0.04l-2.14,0.67c-0.31,0.1-0.5,0.41-0.43,0.73l0.01,0.06l0.53,2.63
		C223.84,70.71,224.15,70.94,224.48,70.9z M242.98,62.69c0.17,0.41,0.3,0.86,0.39,1.34c0.18,0.91-0.01,2.34-0.42,3.17
		c-0.04,0.09-0.09,0.18-0.13,0.26c-2.83,5.25-10.25,4.21-11.47-1.72c-0.16-0.77-0.06-1.9,0.22-2.77c0.07-0.2,0.14-0.39,0.22-0.55
		c0.38-0.75,0.85-1.39,1.38-1.9C236.22,57.6,241.31,58.56,242.98,62.69z"/>
	<g>
		<path class="st4" d="M56.21,206.63c0,0,0.32-3.51-3.6-3.51c0,0,1.19,0.32,1.8,0.97c0,0-2.5-1.47-5.22,0.79
			c-2.72,2.26-1.03,7.92-1.86,8.99c-0.83,1.07-4.05,1.29-3.66,4.76c0.39,3.48,10.23,7.83,9.6,10.7c0,0,3.86-5.67,1.1-8.25
			c0,0,1.34,1.27,1.48,2.77c0,0,0.36-2.94-1.5-3.88c-1.65-0.83-3.01-3.87-2.87-4.42C51.62,215.02,56.21,206.63,56.21,206.63z"/>
		<path class="st5" d="M52.35,223.49c0,0,2.93,12.12,5.81,14.55c1.73,1.46,6.87,4.8,6.87,4.8l-2.14,0.78c0,0-7.13-2.41-8.73-4.29
			c-1.6-1.88-5.97-11.28-5.97-11.28L52.35,223.49z"/>
		<path class="st6" d="M24.8,244.79c0.03,0.05,0.05,0.09,0.08,0.14c0.64,1.11,2.11,3.85,3.73,6.83c0.77,1.42,1.57,2.89,2.33,4.28
			c1.31,2.4,2.51,4.53,3.2,5.66c0.71,1.15,1.23,1.95,1.44,2.28c0,0,0,0,0,0c0.06,0.1,0.08,0.22,0.07,0.33
			c-0.07,1.01-0.05,2.02,0.05,3.01c0.98,9.72,7.53,14.93,7.53,14.93l1.95,0.29c0,0-2.76-10.22-3.57-16
			c-0.14-0.98-0.2-1.77-0.15-2.29c0.14-1.51-0.12-3.72-0.63-6.25c-0.9-4.51-2.55-10.04-3.99-14.48c-0.09-0.28-2.83-10.2-2.83-10.2
			c-2.3,2.01-10.69,2.84-10.69,2.84S21.9,239.63,24.8,244.79z"/>
		<path class="st4" d="M49.28,285.01h-8.14c0,0-0.2-1.24,0.23-2.18c0.41-0.9,0.99-0.93,0.07-2.35c0.52,0.53,2.18,0.75,3.36,0.59
			c0.14,0.23,0.93,1.8,1.41,2.15C46.75,283.61,49.12,283.48,49.28,285.01z"/>
		<path class="st4" d="M24.8,244.79c0.03,0.05,0.05,0.09,0.08,0.14c0.64,1.11,4.11,7.52,5.73,10.51
			c-1.88-7.72-0.57-15.45-0.57-15.45L24.8,244.79z"/>
		<path class="st4" d="M55.1,206.14c0.05-0.21-4.65,2.12-4.89,2.39c-2.2,2.45-1.58,5.64-0.31,5.67c0.81,0.02,0.65,1.36,0.65,1.36
			l9.01-3.81C59.56,211.75,58.48,205.42,55.1,206.14z"/>
		<path class="st3" d="M52.07,221.67c0,0,1.37,2.74,1.2,4.96c0,0-1.65,2.61-5.94,3.27C47.33,229.9,51.02,221.67,52.07,221.67z"/>
		<path class="st6" d="M31.15,236.78l0.03-1.52c-3.03,0.38-10.45-3.62-10.45-3.62s-3.17,2.11-3.61,8.13
			c-0.21,2.94-1.55,15.38-1.7,19.09c-0.05,1.35-0.07,2.31-0.08,2.69c0,0,0,0,0,0c0,0.12-0.06,0.22-0.13,0.31
			c-0.63,0.8-1.17,1.64-1.64,2.52c-4.63,8.61-2.21,20.3-2.21,20.3l1.07-0.27c0,0,3.91-12.13,6.47-17.37
			c0.43-0.89,0.83-1.58,1.16-1.98c0.96-1.17,1.98-3.15,2.97-5.54C24.92,255.01,31.15,236.78,31.15,236.78z"/>
		<path class="st4" d="M17.83,285.01H9.69c0,0-0.2-1.24,0.23-2.18c0.41-0.9,1.05-1.31,0.89-2.41c0.52,0.53,1.36,1.13,2.54,0.97
			c0.14,0.23,0.93,1.48,1.41,1.83C15.29,283.61,17.66,283.48,17.83,285.01z"/>
		<path class="st3" d="M46.78,231.65c-1.09,0.19,0.18,1.06-1.32,1.22c-2.14,0.23-4.35,0.39-5.51,0.85c-0.42,0.17-0.7,0.38-0.79,0.64
			c-0.5,1.51-3.68,4.1-3.68,4.1c-14.17-0.64-15.08-6.96-15.08-6.96c9.2-8.93,17.02-13.8,23.48-14.4c1.57-0.15,3.69,0.05,4.69,0.49
			c2.26,1.01,3.5,4.07,3.5,4.07S50.93,230.94,46.78,231.65z"/>
		<path class="st7" d="M45.45,232.87c-2.14,0.23-4.35,0.39-5.51,0.85c-0.47-7.07,2.86-12.38,2.86-12.38S44.99,230.2,45.45,232.87z"
			/>
		<path class="st5" d="M48.45,218.18c0.4,1.27,1.75,4.88,3.62,3.49c-0.06-0.27,0.33-1.05,0.79-1.85c0.59-1.02,1.3-2.06,1.3-2.06
			l-3.05-2.67l-0.18-0.16c-0.8,1.39-1.58,2.06-2.27,2.57C48.46,217.67,48.37,217.93,48.45,218.18z"/>
		<path class="st8" d="M54.16,217.77c0,0-0.7,1.04-1.3,2.05c-1.89-1.17-1.89-3.51-1.75-4.72L54.16,217.77z"/>
		<path class="st5" d="M54.24,219.1c0,0-4.6-2.56-2.96-5.39c1.64-2.84,2.15-5.08,5.15-3.57c3,1.51,2.94,2.92,2.63,4
			C58.75,215.22,55.48,219.7,54.24,219.1z"/>
		<path class="st4" d="M59.84,212.49c-0.21-1.26-0.85-1.38-1.3-1.3c-1.7-2.81-4.47-1.71-4.47-1.71c-1.48,1.86-3.62,2.18-3.62,2.18
			s0.53,0.99,2.73,1.61c0.67,0.19,1.43,0.07,2.17-0.17c-1.52,0.85-3.12,1.18-3.12,1.18c2.9,0.26,5.65-2.38,5.94-2.67
			c0.13,0.41,0.37,1.27,0.23,1.9c-0.19,0.85-0.95,2.4-0.49,2.6C57.91,216.1,60.15,214.38,59.84,212.49z"/>
		<g>
			
				<rect x="67.21" y="256.78" transform="matrix(0.8989 0.4382 -0.4382 0.8989 123.4418 -11.3395)" class="st3" width="38.15" height="10.01"/>
			<g>
				<path class="st3" d="M56.23,259.8c-3.15-1.53-5.38-4.38-6.14-7.8c-0.31-1.39,0.57-2.76,1.96-3.07c1.39-0.31,2.76,0.57,3.07,1.96
					c0.41,1.88,1.64,3.43,3.36,4.28c3.09,1.51,6.84,0.22,8.34-2.87c1.51-3.09,0.22-6.84-2.87-8.34c-1.4-0.68-3-0.82-4.5-0.38
					c-1.36,0.4-2.8-0.38-3.2-1.74c-0.4-1.36,0.38-2.8,1.74-3.2c2.73-0.81,5.65-0.56,8.22,0.69c5.65,2.75,8,9.59,5.25,15.23
					C68.71,260.19,61.87,262.55,56.23,259.8z"/>
			</g>
			<g>
				<path class="st3" d="M104.74,283.45c-5.65-2.75-8-9.59-5.25-15.23c2.75-5.65,9.59-8,15.23-5.25c2.56,1.25,4.55,3.4,5.6,6.05
					c0.52,1.32-0.13,2.82-1.45,3.34c-1.32,0.52-2.82-0.13-3.34-1.45c-0.57-1.45-1.66-2.63-3.07-3.31c-3.09-1.51-6.84-0.22-8.34,2.87
					c-1.51,3.09-0.22,6.84,2.87,8.34c1.72,0.84,3.71,0.85,5.44,0.02c1.28-0.62,2.82-0.07,3.44,1.21c0.62,1.28,0.07,2.82-1.21,3.44
					C111.5,284.99,107.88,284.98,104.74,283.45z"/>
			</g>
			<path class="st7" d="M93.29,266.66l-18.06-8.81c-0.52-0.25-0.74-0.88-0.48-1.4l0.46-0.94c0.25-0.52,0.88-0.74,1.4-0.48
				l18.06,8.81c0.52,0.25,0.74,0.88,0.48,1.4l-0.46,0.94C94.43,266.7,93.8,266.91,93.29,266.66z"/>
		</g>
		<path class="st5" d="M51.61,250.66c0,0,0.1,0.86,0.46,1.3c0.36,0.44,1.41,1.51,1.43,2.14c0,0-0.05,0.28-0.28,0.23
			c-0.23-0.05-1.01-0.83-1.41-0.77c0,0,0.21,1.26,0.43,1.61c0.21,0.35,0.6,1.69,0.48,1.99c-0.13,0.3-2.26-1.47-2.9-2.34
			c-0.65-0.87-0.01-4.39-0.01-4.39L51.61,250.66z"/>
		<path class="st5" d="M47.3,220.15c0,0-5.38-0.29-6.34,3.08c-0.96,3.38,1.79,16.86,2.39,18.25c1.08,2.53,6.33,9.76,6.33,9.76
			l1.93-0.59c0,0-3.5-11.05-4.28-12.14C46.1,236.81,48.91,221.62,47.3,220.15z"/>
		<path class="st3" d="M39.9,227.75c0.01,0.08,5.09,0.93,8.27-0.68c0,0,2.65-8.31-1.14-7.91c-3.79,0.4-6.04,1.59-6.13,3.41
			C40.8,224.38,39.9,227.75,39.9,227.75z"/>
		<path class="st5" d="M62.38,237.43c-0.26,0.01-0.72,0.1-0.89,0.22c-0.29,0.23-0.62,0.62,0.03,0.95c0.99,0.49,2.96,0.27,2.88-0.02
			C64.16,237.65,63.81,237.37,62.38,237.43z"/>
	</g>
	<g>
		<path class="st5" d="M125.08,105.12c-0.26,0.3-0.29,0.63-0.16,0.98c0,0,0,0,0,0c0.24,0.66,1.02,1.39,1.93,2.12
			c0.12,0.09,0.22,0.18,0.31,0.26c0.02,0.02,0.05,0.04,0.07,0.06c0.02,0.02,0.04,0.03,0.05,0.05c0.85,0.78,0.53,0.96,2.06,2.55
			c1.74,1.81,2.94,1.84,3.28,1.68c0.29-0.14-0.3-1.1-0.95-2.18c-0.03-0.05-0.06-0.1-0.09-0.16c-0.09-0.14-0.17-0.29-0.26-0.43
			c-0.76-1.3-0.57-1.91-0.39-3.84c0.15-1.57,2.44-8.78,2.44-8.78l-3.34-0.57c0,0-1,5.74-2.11,6.62c-0.59,0.47-1.25,0.48-1.82,0.83
			c-0.04,0.02-0.08,0.05-0.12,0.07C125.67,104.6,125.34,104.82,125.08,105.12z"/>
		<path class="st4" d="M125.08,105.12c-0.26,0.3-0.29,0.63-0.16,0.98c0,0,0,0,0,0c0.29,0.66,1.06,1.38,1.94,2.11
			c0.12,0.1,0.22,0.18,0.31,0.27c0.02,0.02,0.05,0.04,0.07,0.06c0.02,0.02,0.04,0.03,0.05,0.05c0.85,0.78,0.53,0.96,2.06,2.55
			c1.74,1.81,2.94,1.84,3.28,1.68c0.29-0.14-0.3-1.1-0.95-2.18c-0.34-0.12-1.91-0.76-3.1-2.29c-1.05-1.34-1.75-3.06-2.46-4.05
			c-0.04,0.02-0.08,0.05-0.12,0.07C125.67,104.6,125.34,104.82,125.08,105.12z"/>
		<path class="st5" d="M151.98,103.04c0.21,1.03,1.67,0.86,3.31,0.46c1.64-0.4,1.25,0.08,3.58-0.18c2.33-0.26,3.04-1.13,3.11-1.48
			c0.06-0.31-1.09-0.42-2.33-0.56c-0.16-0.02-0.31-0.04-0.47-0.06c-1.4-0.18-2.42-1.08-3.69-1.82c-1.2-0.7-2.99-3.56-2.99-3.56
			l-3.2,0.25c0,0,1.68,2.55,2.33,3.66c0.38,0.65,0.36,1.51,0.31,2.18C151.93,102.31,151.91,102.68,151.98,103.04z"/>
		<path class="st4" d="M155.29,103.5c1.64-0.4,1.25,0.08,3.58-0.18c2.33-0.26,3.04-1.13,3.11-1.48c0.06-0.31-1.09-0.42-2.33-0.56
			l-0.01,0.02c0,0-1.4,0.99-3.34,1.04c-1.58,0.04-3.26-0.42-4.35-0.4c-0.02,0.36-0.05,0.73,0.02,1.09
			C152.19,104.07,153.65,103.9,155.29,103.5z"/>
		<path class="st4" d="M139.71,82.57l-2.99,8.05l-3.91,10.51c0,0-1.06,0.1-2.08-0.19c-0.93-0.27-2.01-0.98-2.01-0.98
			s1.08-11.29,3.11-17.77c0.52-1.66,1.1-3.01,1.74-3.77C136.72,74.73,139.71,82.57,139.71,82.57z"/>
		<path class="st6" d="M136.67,69.79c-1.96-0.63-7.55,0.18-13.17,1.28l-1.18-1.94l-12.13-0.95c0,0-4,8.88-1.81,14.53
			c0.32,0.83,0.96,1.36,2.05,1.38c0,0,0.18,0,0.18,0c0,0,7.22,0,9.56,0c6.03,0,12.77-4.15,13.64-4.32c1.43-0.29,2,2.57,3.42,5.56
			c1.43,2.99,13.4,13.26,13.4,13.26s1.84,0.02,2.6-0.27c0.82-0.31,1.12-0.71,1.12-0.71S141.09,71.22,136.67,69.79z"/>
		<path class="st4" d="M118.31,32.2c-1.7-0.44-4.03,0-4.41,0.04c-4.62,0.45-6.17,5.6-5.47,9.6c0.64,3.69-1.23,4.71-3.39,7.62
			c-4.34,5.84-1.51,10.76,1.92,12.03c2.06,0.76,4.91-1.16,4.91-1.16c0.05,0.02,8.97-5.85,12.63-9.15
			C130.6,48.79,122.64,33.32,118.31,32.2z"/>
		<path class="st5" d="M118.99,49.09c0.12,0.43-1.9,1.21-3.44,0.92c-1.45-0.27-3.07-1.97-2.74-2.13c0.55-0.26,0.93-0.92,0.62-4.46
			l0.28,0.03l4.64,0.53c0,0,0.01,1.45,0.12,2.8C118.57,47.92,118.8,48.39,118.99,49.09z"/>
		<path class="st8" d="M118.35,43.98c0,0,0.01,1.45,0.12,2.8c-2.56,0.14-4.1-2.08-4.76-3.33L118.35,43.98z"/>
		<path class="st5" d="M119.31,45.19c0,0-6.04,0.6-6.35-3.17c-0.31-3.76-1.3-6.22,2.54-6.76c3.84-0.54,4.71,0.83,5.12,2.07
			C121.03,38.56,120.87,44.94,119.31,45.19z"/>
		<path class="st4" d="M118.67,34.67c0,0-0.76,4.6-4.2,5.69c-2.51,0.8-3.64,0.27-3.64,0.27s1.21-1.6,1.64-3.83
			c0.13-0.66,0.59-1.2,1.23-1.4C115.47,34.81,117.63,33.21,118.67,34.67z"/>
		<path class="st4" d="M117.53,35.65c0,0,1.14,0.25,2.15,1.72c0.55,0.8,1.19,2.82,1.08,3.72c0,0,1.06-4.26-0.48-5.84
			C118.64,33.57,117.53,35.65,117.53,35.65z"/>
		<path class="st3" d="M108.13,61.45c0.11,0.46,0.2,0.88,0.27,1.27c0.12,0.63,0.21,1.17,0.27,1.64c0.18,1.48,0.13,2.36,0.25,3.33
			c0.07,0.54,0.2,1.1,0.45,1.81c0.25,0.69,6.81,1.3,10.54,1.06c1.18-0.08,2.09-0.24,2.41-0.52c1.33-1.16,1.2,1.39,1.38-10.78
			c0.09-5.93-5.04-11.22-5.04-11.22s-0.41,2.53-5.49-0.48c-0.18-0.11-2.18,2.86-4.11,6.51C106.94,58.09,107.53,58.94,108.13,61.45z"
			/>
		<path class="st6" d="M136.72,90.63l-3.91,10.51c0,0-1.06,0.1-2.08-0.19c-0.93-0.27-2.01-0.98-2.01-0.98s1.08-11.29,3.11-17.77
			L136.72,90.63z"/>
		<path class="st3" d="M118.67,48.03c0,0,5.23,0.89,5.84,3.14c0.61,2.25,4.86,14.84,4.86,14.84s-3.29,1.12-4.51-0.11
			c-1.23-1.23-4.27-11.39-4.27-11.39L118.67,48.03z"/>
		<path class="st9" d="M117.92,42.97c0,0,0.25,0.62,0.92,0.62c0.67,0,0.85-0.1,0.98-0.24c0.13-0.14,0.25-0.41,0.25-0.41
			S118.96,42.72,117.92,42.97z"/>
		<path class="st7" d="M108.67,64.36c0.18,1.48,0.13,2.36,0.25,3.33c4.75,0.02,11.09-3.67,11.09-3.67L108.67,64.36z"/>
		<path class="st7" d="M120.02,60.91c0,0-7.4-0.22-8.64-4.42c-1.37-4.62-2.9,1.9-2.9,1.9l0.82,4.16h8.11L120.02,60.91z"/>
		<g>
			<path class="st2" d="M132.91,49.5l-0.4-0.99c-0.43-1.06-1.46-1.76-2.6-1.76h-7.37v4.68v19.97h30.5V51.43h-17.26
				C134.51,51.43,133.38,50.67,132.91,49.5z"/>
			<g>
				<path class="st9" d="M127.13,61.75v-1.78l6.23-2.73v1.82l-4.35,1.79l4.35,1.79v1.84L127.13,61.75z"/>
				<path class="st9" d="M139.84,55.11h1.66l-5.7,11.92h-1.66L139.84,55.11z"/>
				<path class="st9" d="M148.43,59.97v1.78l-6.23,2.73v-1.82l4.35-1.79l-4.35-1.79v-1.84L148.43,59.97z"/>
			</g>
		</g>
		<path class="st5" d="M120.01,61.88l0.54-0.84c0,0,0.42-0.14,1.02-0.56c0.71-0.5,0.61-1.24,0.97-1.16l0,1.63l-0.04,0.01
			c1.52,0.4,3.29-0.04,3.32,0.34c0.1,1.04-0.71,1.51-1.38,1.83c-0.51,0.25-1.1,0.62-2.03,0.33c-0.68-0.21-1.75-0.43-1.75-0.43
			L120.01,61.88z"/>
		<path class="st3" d="M113.17,47.55c0,0-4.8,0.31-6,2.19c-1.2,1.87-2.69,11.38-2.06,14.64c0.62,3.26,16-0.62,16-0.62l-0.49-2.83
			c0,0-8.87,0.05-9.38-1.1C110.57,58.29,113.17,47.55,113.17,47.55z"/>
		<path class="st5" d="M136.35,51.42c-0.04,0.12,0.72,1.38,1.81,1.16c0.68-0.14,1.56-1.6,0.79-1.92
			C137.65,50.13,136.46,51.09,136.35,51.42z"/>
	</g>
	<g>
		<g>
			
				<rect x="173.19" y="100.61" transform="matrix(0.4709 -0.8822 0.8822 0.4709 12.8082 222.7675)" class="st4" width="37.86" height="0.18"/>
		</g>
		<g>
			
				<rect x="256.2" y="80.07" transform="matrix(0.7334 -0.6798 0.6798 0.7334 3.8693 199.497)" class="st4" width="0.18" height="29.48"/>
		</g>
		<g>
			<path class="st0" d="M278.77,111.94c0.3,2.17-0.3,4.25-1.5,5.87c-1.2,1.62-3,2.77-5.11,3.06l-89.61,12.31
				c-4.57,0.63-8.8-2.4-9.4-6.73c-0.3-2.17,0.37-4.26,1.68-5.9c1.31-1.63,3.27-2.81,5.55-3.12l89.61-12.31
				C274.22,104.54,278.17,107.61,278.77,111.94z"/>
			<path class="st3" d="M278.77,111.94c0.3,2.17-0.3,4.25-1.5,5.87c-1.2,1.62-3,2.77-5.11,3.06l-16.22,2.23l-2.16-15.75l16.22-2.23
				C274.22,104.54,278.17,107.61,278.77,111.94z"/>
			<g>
				<g>
					<path class="st9" d="M268.9,116.21c-0.2,0.03-0.4,0.04-0.61,0.04c-1.08-0.01-2.09-0.45-2.85-1.22
						c-1.56-1.6-1.53-4.17,0.07-5.73l0,0c1.6-1.56,4.17-1.53,5.73,0.07c1.56,1.6,1.53,4.17-0.07,5.73
						C270.54,115.71,269.75,116.09,268.9,116.21z M265.97,109.78c-1.33,1.3-1.36,3.45-0.06,4.79c0.63,0.65,1.48,1.01,2.38,1.02
						c0.9,0.01,1.76-0.33,2.4-0.96c1.33-1.3,1.36-3.45,0.06-4.79C269.45,108.5,267.31,108.47,265.97,109.78L265.97,109.78z"/>
				</g>
				
					<rect x="263.37" y="113.96" transform="matrix(0.6989 0.7152 -0.7152 0.6989 162.8882 -153.4574)" class="st9" width="0.67" height="5.53"/>
				<path class="st9" d="M260.35,120L260.35,120c-0.23-0.24-0.23-0.61,0.01-0.84l2.33-2.28c0.24-0.23,0.61-0.23,0.84,0.01l0,0
					c0.23,0.24,0.23,0.61-0.01,0.84l-2.33,2.28C260.96,120.24,260.58,120.24,260.35,120z"/>
			</g>
		</g>
	</g>
	<g>
		<path class="st3" d="M128.24,197.52h-18.62c-0.42,0-0.76-0.34-0.76-0.76v-0.2c0-0.42,0.34-0.76,0.76-0.76h18.62
			c0.42,0,0.76,0.34,0.76,0.76v0.2C128.99,197.18,128.66,197.52,128.24,197.52z"/>
		<g>
			<path class="st4" d="M118.68,203.39h-9.24c-0.32,0-0.58-0.26-0.58-0.58l0,0c0-0.32,0.26-0.58,0.58-0.58h9.24
				c0.32,0,0.58,0.26,0.58,0.58l0,0C119.26,203.13,119,203.39,118.68,203.39z"/>
			<g>
				<path class="st4" d="M125.78,200.95h-16.4c-0.28,0-0.52-0.23-0.52-0.52v-0.13c0-0.28,0.23-0.52,0.52-0.52h16.4
					c0.28,0,0.52,0.23,0.52,0.52v0.13C126.3,200.72,126.07,200.95,125.78,200.95z"/>
				<path class="st4" d="M143.65,200.95H128.4c-0.28,0-0.52-0.23-0.52-0.52v-0.13c0-0.28,0.23-0.52,0.52-0.52h15.25
					c0.28,0,0.52,0.23,0.52,0.52v0.13C144.17,200.72,143.94,200.95,143.65,200.95z"/>
				<path class="st4" d="M130.2,203.39h-9.24c-0.32,0-0.58-0.26-0.58-0.58l0,0c0-0.32,0.26-0.58,0.58-0.58h9.24
					c0.32,0,0.58,0.26,0.58,0.58l0,0C130.79,203.13,130.52,203.39,130.2,203.39z"/>
			</g>
		</g>
		<path class="st3" d="M151.03,197.52h-18.62c-0.42,0-0.76-0.34-0.76-0.76v-0.2c0-0.42,0.34-0.76,0.76-0.76h18.62
			c0.42,0,0.76,0.34,0.76,0.76v0.2C151.79,197.18,151.45,197.52,151.03,197.52z"/>
	</g>
	<g>
		<path class="st3" d="M128.24,210.38h-18.62c-0.42,0-0.76-0.34-0.76-0.76v-0.2c0-0.42,0.34-0.76,0.76-0.76h18.62
			c0.42,0,0.76,0.34,0.76,0.76v0.2C128.99,210.04,128.66,210.38,128.24,210.38z"/>
		<g>
			<path class="st4" d="M118.68,216.25h-9.24c-0.32,0-0.58-0.26-0.58-0.58l0,0c0-0.32,0.26-0.58,0.58-0.58h9.24
				c0.32,0,0.58,0.26,0.58,0.58l0,0C119.26,215.99,119,216.25,118.68,216.25z"/>
			<g>
				<path class="st4" d="M125.78,213.81h-16.4c-0.28,0-0.52-0.23-0.52-0.52v-0.13c0-0.28,0.23-0.52,0.52-0.52h16.4
					c0.28,0,0.52,0.23,0.52,0.52v0.13C126.3,213.58,126.07,213.81,125.78,213.81z"/>
				<path class="st4" d="M143.65,213.81H128.4c-0.28,0-0.52-0.23-0.52-0.52v-0.13c0-0.28,0.23-0.52,0.52-0.52h15.25
					c0.28,0,0.52,0.23,0.52,0.52v0.13C144.17,213.58,143.94,213.81,143.65,213.81z"/>
				<path class="st4" d="M130.2,216.25h-9.24c-0.32,0-0.58-0.26-0.58-0.58l0,0c0-0.32,0.26-0.58,0.58-0.58h9.24
					c0.32,0,0.58,0.26,0.58,0.58l0,0C130.79,215.99,130.52,216.25,130.2,216.25z"/>
			</g>
		</g>
		<path class="st3" d="M151.03,210.38h-18.62c-0.42,0-0.76-0.34-0.76-0.76v-0.2c0-0.42,0.34-0.76,0.76-0.76h18.62
			c0.42,0,0.76,0.34,0.76,0.76v0.2C151.79,210.04,151.45,210.38,151.03,210.38z"/>
	</g>
	<g>
		<polygon class="st6" points="225.6,132.21 214.91,134.7 209.62,144.32 205.58,122.4 		"/>
		
			<rect x="215.98" y="132.03" transform="matrix(0.797 -0.604 0.604 0.797 -39.1176 158.9817)" class="st6" width="1.95" height="11.31"/>
	</g>
	<g>
		<path class="st0" d="M212.43,177.53h-13.95c-4.47,0-8.1-3.63-8.1-8.1v-13.95c0-4.47,3.63-8.1,8.1-8.1h13.95
			c4.47,0,8.1,3.63,8.1,8.1v13.95C220.52,173.91,216.9,177.53,212.43,177.53z"/>
		<g>
			<path class="st7" d="M194.23,171.23l5.86-10.56c0.68-1.23,2.41-1.34,3.24-0.2l3.38,4.61c0.72,0.98,2.15,1.06,2.98,0.16l0,0
				c0.85-0.93,2.35-0.81,3.04,0.25l3.65,5.63c0.83,1.28-0.09,2.97-1.62,2.97h-18.83C194.45,174.09,193.52,172.51,194.23,171.23z"/>
			<path class="st7" d="M205.79,155.73c0-1.27,1.03-2.3,2.3-2.3c1.27,0,2.3,1.03,2.3,2.3c0,1.27-1.03,2.3-2.3,2.3
				C206.82,158.04,205.79,157.01,205.79,155.73z"/>
		</g>
	</g>
	<g>
		<path class="st0" d="M257.16,178.35l-26.05,3.55c-1.05,0.14-2.03-0.59-2.17-1.65l-3.55-26.05c-0.14-1.05,0.59-2.03,1.65-2.17
			l26.05-3.55c1.05-0.14,2.03,0.59,2.17,1.65l3.55,26.05C258.95,177.23,258.22,178.2,257.16,178.35z"/>
		<g>
			<path class="st7" d="M232.17,175.39l4.38-11.26c0.51-1.31,2.2-1.65,3.18-0.64l3.97,4.11c0.84,0.87,2.28,0.76,2.97-0.24l0,0
				c0.72-1.04,2.22-1.12,3.05-0.16l4.37,5.08c1,1.16,0.31,2.96-1.2,3.17L234.22,178C232.77,178.2,231.63,176.76,232.17,175.39z"/>
			<path class="st7" d="M241.53,158.48c-0.17-1.26,0.71-2.42,1.97-2.59c1.26-0.17,2.42,0.71,2.59,1.97
				c0.17,1.26-0.71,2.42-1.97,2.59C242.86,160.62,241.7,159.74,241.53,158.48z"/>
		</g>
	</g>
	<g>
		<rect x="165.37" y="271.47" class="st3" width="15.19" height="13.03"/>
		<rect x="164.76" y="270.91" class="st6" width="16.32" height="1.01"/>
		<rect x="165.37" y="275" class="st6" width="15.19" height="4.14"/>
	</g>
	<path class="st3" d="M199.05,284.51H184.7c-0.53,0-0.95-0.43-0.95-0.95v-1.59c0-0.57,0.49-1.01,1.06-0.95l14.34,1.59
		c0.48,0.05,0.85,0.46,0.85,0.95l0,0C200,284.08,199.57,284.51,199.05,284.51z"/>
	<path class="st10" d="M399.69,285.79L0.31,285.66c-0.27,0-0.49-0.22-0.49-0.49l0-0.25c0-0.27,0.22-0.49,0.49-0.49l399.37,0.14
		c0.27,0,0.49,0.22,0.49,0.49v0.25C400.17,285.57,399.96,285.79,399.69,285.79z"/>
	<g>
		<path class="st4" d="M173.99,178.72h-1.65c-0.15,0-0.27-0.12-0.27-0.27c0-0.15,0.12-0.27,0.27-0.27h1.64
			c0.15,0,0.28,0.12,0.28,0.27C174.26,178.6,174.14,178.72,173.99,178.72z M170.7,178.72h-1.64c-0.15,0-0.27-0.12-0.27-0.27
			c0-0.15,0.12-0.27,0.27-0.27h1.64c0.15,0,0.27,0.12,0.27,0.27C170.97,178.6,170.85,178.72,170.7,178.72z M167.41,178.72h-1.64
			c-0.15,0-0.27-0.12-0.27-0.27c0-0.15,0.12-0.27,0.27-0.27h1.64c0.15,0,0.27,0.12,0.27,0.27
			C167.68,178.6,167.56,178.72,167.41,178.72z M164.13,178.72h-1.64c-0.15,0-0.27-0.12-0.27-0.27c0-0.15,0.12-0.27,0.27-0.27h1.64
			c0.15,0,0.27,0.12,0.27,0.27C164.4,178.6,164.28,178.72,164.13,178.72z M160.84,178.72h-1.64c-0.15,0-0.27-0.12-0.27-0.27
			c0-0.15,0.12-0.27,0.27-0.27h1.64c0.15,0,0.27,0.12,0.27,0.27C161.12,178.6,160.99,178.72,160.84,178.72z M157.56,178.72h-1.64
			c-0.15,0-0.27-0.12-0.27-0.27c0-0.15,0.12-0.27,0.27-0.27h1.64c0.15,0,0.27,0.12,0.27,0.27
			C157.83,178.6,157.71,178.72,157.56,178.72z M154.28,178.72h-1.64c-0.15,0-0.27-0.12-0.27-0.27c0-0.15,0.12-0.27,0.27-0.27h1.64
			c0.15,0,0.27,0.12,0.27,0.27C154.55,178.6,154.43,178.72,154.28,178.72z M150.99,178.72h-1.64c-0.15,0-0.27-0.12-0.27-0.27
			c0-0.15,0.12-0.27,0.27-0.27h1.64c0.15,0,0.27,0.12,0.27,0.27C151.26,178.6,151.14,178.72,150.99,178.72z M147.71,178.72h-1.64
			c-0.15,0-0.27-0.12-0.27-0.27c0-0.15,0.12-0.27,0.27-0.27h1.64c0.15,0,0.27,0.12,0.27,0.27
			C147.98,178.6,147.86,178.72,147.71,178.72z M144.43,178.72h-1.64c-0.15,0-0.27-0.12-0.27-0.27c0-0.15,0.12-0.27,0.27-0.27h1.64
			c0.15,0,0.27,0.12,0.27,0.27C144.7,178.6,144.58,178.72,144.43,178.72z M141.14,178.72h-1.64c-0.15,0-0.27-0.12-0.27-0.27
			c0-0.15,0.12-0.27,0.27-0.27h1.64c0.15,0,0.27,0.12,0.27,0.27C141.41,178.6,141.29,178.72,141.14,178.72z M137.86,178.72h-1.64
			c-0.15,0-0.27-0.12-0.27-0.27c0-0.15,0.12-0.27,0.27-0.27h1.64c0.15,0,0.27,0.12,0.27,0.27
			C138.13,178.6,138.01,178.72,137.86,178.72z M134.57,178.72h-1.64c-0.15,0-0.27-0.12-0.27-0.27c0-0.15,0.12-0.27,0.27-0.27h1.64
			c0.15,0,0.27,0.12,0.27,0.27C134.85,178.6,134.72,178.72,134.57,178.72z M131.29,178.72h-1.64c-0.15,0-0.27-0.12-0.27-0.27
			c0-0.15,0.12-0.27,0.27-0.27h1.64c0.15,0,0.27,0.12,0.27,0.27C131.56,178.6,131.44,178.72,131.29,178.72z M128.01,178.72h-1.64
			c-0.15,0-0.27-0.12-0.27-0.27c0-0.15,0.12-0.27,0.27-0.27h1.64c0.15,0,0.27,0.12,0.27,0.27
			C128.28,178.6,128.16,178.72,128.01,178.72z M124.72,178.72h-1.64c-0.15,0-0.27-0.12-0.27-0.27c0-0.15,0.12-0.27,0.27-0.27h1.64
			c0.15,0,0.27,0.12,0.27,0.27C124.99,178.6,124.87,178.72,124.72,178.72z M121.44,178.72h-1.64c-0.15,0-0.27-0.12-0.27-0.27
			c0-0.15,0.12-0.27,0.27-0.27h1.64c0.15,0,0.27,0.12,0.27,0.27C121.71,178.6,121.59,178.72,121.44,178.72z M118.16,178.72h-1.46
			c-0.07,0-0.13,0-0.2-0.01c-0.15-0.01-0.26-0.14-0.25-0.29c0.01-0.15,0.14-0.27,0.29-0.25c0.05,0,0.11,0.01,0.16,0.01h1.46
			c0.15,0,0.27,0.12,0.27,0.27C118.43,178.6,118.31,178.72,118.16,178.72z M175.54,178.24c-0.09,0-0.17-0.04-0.23-0.12
			c-0.08-0.12-0.05-0.29,0.07-0.38c0.41-0.28,0.73-0.67,0.92-1.14c0.06-0.14,0.21-0.21,0.35-0.15c0.14,0.06,0.21,0.21,0.15,0.35
			c-0.23,0.56-0.61,1.04-1.12,1.38C175.64,178.23,175.59,178.24,175.54,178.24z M115,178.14c-0.06,0-0.12-0.02-0.17-0.06
			c-0.48-0.37-0.84-0.87-1.03-1.45c-0.05-0.14,0.03-0.3,0.17-0.34c0.14-0.05,0.3,0.03,0.34,0.17c0.16,0.47,0.45,0.88,0.85,1.19
			c0.12,0.09,0.14,0.26,0.05,0.38C115.16,178.11,115.08,178.14,115,178.14z M176.75,175.37c-0.15,0-0.27-0.12-0.27-0.27v-1.64
			c0-0.15,0.12-0.27,0.27-0.27c0.15,0,0.27,0.12,0.27,0.27v1.64C177.02,175.24,176.9,175.37,176.75,175.37z M113.92,175.2
			c-0.15,0-0.27-0.12-0.27-0.27v-1.64c0-0.15,0.12-0.27,0.27-0.27c0.15,0,0.27,0.12,0.27,0.27v1.64
			C114.19,175.08,114.07,175.2,113.92,175.2z M176.75,172.08c-0.15,0-0.27-0.12-0.27-0.27v-1.64c0-0.15,0.12-0.27,0.27-0.27
			c0.15,0,0.27,0.12,0.27,0.27v1.64C177.02,171.96,176.9,172.08,176.75,172.08z M113.92,171.91c-0.15,0-0.27-0.12-0.27-0.27V170
			c0-0.15,0.12-0.27,0.27-0.27c0.15,0,0.27,0.12,0.27,0.27v1.64C114.19,171.79,114.07,171.91,113.92,171.91z M176.75,168.8
			c-0.15,0-0.27-0.12-0.27-0.27v-1.64c0-0.15,0.12-0.27,0.27-0.27c0.15,0,0.27,0.12,0.27,0.27v1.64
			C177.02,168.68,176.9,168.8,176.75,168.8z M113.92,168.63c-0.15,0-0.27-0.12-0.27-0.27v-1.64c0-0.15,0.12-0.27,0.27-0.27
			c0.15,0,0.27,0.12,0.27,0.27v1.64C114.19,168.51,114.07,168.63,113.92,168.63z M176.75,165.51c-0.15,0-0.27-0.12-0.27-0.27v-1.64
			c0-0.15,0.12-0.27,0.27-0.27c0.15,0,0.27,0.12,0.27,0.27v1.64C177.02,165.39,176.9,165.51,176.75,165.51z M113.92,165.35
			c-0.15,0-0.27-0.12-0.27-0.27v-1.64c0-0.15,0.12-0.27,0.27-0.27c0.15,0,0.27,0.12,0.27,0.27v1.64
			C114.19,165.23,114.07,165.35,113.92,165.35z M176.75,162.23c-0.15,0-0.27-0.12-0.27-0.27v-1.64c0-0.15,0.12-0.27,0.27-0.27
			c0.15,0,0.27,0.12,0.27,0.27v1.64C177.02,162.11,176.9,162.23,176.75,162.23z M113.92,162.06c-0.15,0-0.27-0.12-0.27-0.27v-1.64
			c0-0.15,0.12-0.27,0.27-0.27c0.15,0,0.27,0.12,0.27,0.27v1.64C114.19,161.94,114.07,162.06,113.92,162.06z M176.75,158.95
			c-0.15,0-0.27-0.12-0.27-0.27v-1.64c0-0.15,0.12-0.27,0.27-0.27c0.15,0,0.27,0.12,0.27,0.27v1.64
			C177.02,158.82,176.9,158.95,176.75,158.95z M113.92,158.78c-0.15,0-0.27-0.12-0.27-0.27v-1.64c0-0.15,0.12-0.27,0.27-0.27
			c0.15,0,0.27,0.12,0.27,0.27v1.64C114.19,158.66,114.07,158.78,113.92,158.78z M176.75,155.66c-0.15,0-0.27-0.12-0.27-0.27v-1.64
			c0-0.15,0.12-0.27,0.27-0.27c0.15,0,0.27,0.12,0.27,0.27v1.64C177.02,155.54,176.9,155.66,176.75,155.66z M113.92,155.5
			c-0.15,0-0.27-0.12-0.27-0.27v-1.64c0-0.15,0.12-0.27,0.27-0.27c0.15,0,0.27,0.12,0.27,0.27v1.64
			C114.19,155.37,114.07,155.5,113.92,155.5z M176.75,152.38c-0.15,0-0.27-0.12-0.27-0.27v-1.64c0-0.15,0.12-0.27,0.27-0.27
			c0.15,0,0.27,0.12,0.27,0.27v1.64C177.02,152.26,176.9,152.38,176.75,152.38z M113.92,152.21c-0.15,0-0.27-0.12-0.27-0.27v-1.64
			c0-0.15,0.12-0.27,0.27-0.27c0.15,0,0.27,0.12,0.27,0.27v1.64C114.19,152.09,114.07,152.21,113.92,152.21z M176.75,149.1
			c-0.15,0-0.27-0.12-0.27-0.27v-1.64c0-0.15,0.12-0.27,0.27-0.27c0.15,0,0.27,0.12,0.27,0.27v1.64
			C177.02,148.97,176.9,149.1,176.75,149.1z M113.92,148.93c-0.15,0-0.27-0.12-0.27-0.27v-1.64c0-0.15,0.12-0.27,0.27-0.27
			c0.15,0,0.27,0.12,0.27,0.27v1.64C114.19,148.81,114.07,148.93,113.92,148.93z M176.75,145.81c-0.15,0-0.27-0.12-0.27-0.27v-0.74
			c0-0.27-0.04-0.54-0.13-0.8c-0.05-0.14,0.03-0.3,0.17-0.34c0.14-0.05,0.3,0.03,0.34,0.17c0.11,0.31,0.16,0.64,0.16,0.97v0.74
			C177.02,145.69,176.9,145.81,176.75,145.81z M113.92,145.64c-0.15,0-0.27-0.12-0.27-0.27v-0.57c0-0.4,0.07-0.78,0.22-1.14
			c0.06-0.14,0.22-0.21,0.35-0.15c0.14,0.06,0.21,0.21,0.15,0.35c-0.12,0.3-0.18,0.61-0.18,0.94v0.57
			C114.19,145.52,114.07,145.64,113.92,145.64z M175.67,142.87c-0.06,0-0.12-0.02-0.17-0.06c-0.4-0.3-0.87-0.48-1.37-0.51
			c-0.15-0.01-0.26-0.14-0.25-0.29c0.01-0.15,0.14-0.27,0.29-0.25c0.61,0.04,1.18,0.25,1.66,0.62c0.12,0.09,0.14,0.26,0.05,0.38
			C175.83,142.83,175.75,142.87,175.67,142.87z M115.14,142.77c-0.09,0-0.17-0.04-0.23-0.12c-0.08-0.12-0.05-0.29,0.07-0.38
			c0.5-0.34,1.09-0.52,1.7-0.52c0,0,0,0,0,0c0.15,0,0.27,0.12,0.27,0.27c0,0.15-0.12,0.27-0.27,0.27c-0.5,0-0.98,0.15-1.39,0.43
			C115.25,142.76,115.19,142.77,115.14,142.77z M172.51,142.3h-1.64c-0.15,0-0.27-0.12-0.27-0.27c0-0.15,0.12-0.27,0.27-0.27h1.64
			c0.15,0,0.27,0.12,0.27,0.27C172.78,142.18,172.66,142.3,172.51,142.3z M169.23,142.3h-1.64c-0.15,0-0.27-0.12-0.27-0.27
			c0-0.15,0.12-0.27,0.27-0.27h1.64c0.15,0,0.27,0.12,0.27,0.27C169.5,142.18,169.38,142.3,169.23,142.3z M165.94,142.3h-1.64
			c-0.15,0-0.27-0.12-0.27-0.27c0-0.15,0.12-0.27,0.27-0.27h1.64c0.15,0,0.27,0.12,0.27,0.27
			C166.21,142.18,166.09,142.3,165.94,142.3z M162.66,142.3h-1.64c-0.15,0-0.27-0.12-0.27-0.27c0-0.15,0.12-0.27,0.27-0.27h1.64
			c0.15,0,0.27,0.12,0.27,0.27C162.93,142.18,162.81,142.3,162.66,142.3z M159.38,142.3h-1.64c-0.15,0-0.27-0.12-0.27-0.27
			c0-0.15,0.12-0.27,0.27-0.27h1.64c0.15,0,0.27,0.12,0.27,0.27C159.65,142.18,159.53,142.3,159.38,142.3z M156.09,142.3h-1.64
			c-0.15,0-0.27-0.12-0.27-0.27c0-0.15,0.12-0.27,0.27-0.27h1.64c0.15,0,0.27,0.12,0.27,0.27
			C156.36,142.18,156.24,142.3,156.09,142.3z M152.81,142.3h-1.64c-0.15,0-0.27-0.12-0.27-0.27c0-0.15,0.12-0.27,0.27-0.27h1.64
			c0.15,0,0.27,0.12,0.27,0.27C153.08,142.18,152.96,142.3,152.81,142.3z M149.52,142.3h-1.64c-0.15,0-0.27-0.12-0.27-0.27
			c0-0.15,0.12-0.27,0.27-0.27h1.64c0.15,0,0.27,0.12,0.27,0.27C149.8,142.18,149.67,142.3,149.52,142.3z M146.24,142.3h-1.64
			c-0.15,0-0.27-0.12-0.27-0.27c0-0.15,0.12-0.27,0.27-0.27h1.64c0.15,0,0.27,0.12,0.27,0.27
			C146.51,142.18,146.39,142.3,146.24,142.3z M142.96,142.3h-1.64c-0.15,0-0.27-0.12-0.27-0.27c0-0.15,0.12-0.27,0.27-0.27h1.64
			c0.15,0,0.27,0.12,0.27,0.27C143.23,142.18,143.11,142.3,142.96,142.3z M139.67,142.3h-1.64c-0.15,0-0.27-0.12-0.27-0.27
			c0-0.15,0.12-0.27,0.27-0.27h1.64c0.15,0,0.27,0.12,0.27,0.27C139.94,142.18,139.82,142.3,139.67,142.3z M136.39,142.3h-1.64
			c-0.15,0-0.27-0.12-0.27-0.27c0-0.15,0.12-0.27,0.27-0.27h1.64c0.15,0,0.27,0.12,0.27,0.27
			C136.66,142.18,136.54,142.3,136.39,142.3z M133.11,142.3h-1.64c-0.15,0-0.27-0.12-0.27-0.27c0-0.15,0.12-0.27,0.27-0.27h1.64
			c0.15,0,0.27,0.12,0.27,0.27C133.38,142.18,133.26,142.3,133.11,142.3z M129.82,142.3h-1.64c-0.15,0-0.27-0.12-0.27-0.27
			c0-0.15,0.12-0.27,0.27-0.27h1.64c0.15,0,0.27,0.12,0.27,0.27C130.09,142.18,129.97,142.3,129.82,142.3z M126.54,142.3h-1.64
			c-0.15,0-0.27-0.12-0.27-0.27c0-0.15,0.12-0.27,0.27-0.27h1.64c0.15,0,0.27,0.12,0.27,0.27
			C126.81,142.18,126.69,142.3,126.54,142.3z M123.25,142.3h-1.64c-0.15,0-0.27-0.12-0.27-0.27c0-0.15,0.12-0.27,0.27-0.27h1.64
			c0.15,0,0.27,0.12,0.27,0.27C123.53,142.18,123.4,142.3,123.25,142.3z M119.97,142.3h-1.64c-0.15,0-0.27-0.12-0.27-0.27
			c0-0.15,0.12-0.27,0.27-0.27h1.64c0.15,0,0.27,0.12,0.27,0.27C120.24,142.18,120.12,142.3,119.97,142.3z"/>
	</g>
	<g>
		<path class="st4" d="M267.33,224.29h-1.47c-0.13,0-0.24-0.11-0.24-0.24s0.11-0.24,0.24-0.24h1.45c0.13,0,0.25,0.11,0.25,0.24
			S267.46,224.29,267.33,224.29z M264.41,224.29h-1.45c-0.13,0-0.24-0.11-0.24-0.24s0.11-0.24,0.24-0.24h1.45
			c0.13,0,0.24,0.11,0.24,0.24S264.54,224.29,264.41,224.29z M261.5,224.29h-1.45c-0.13,0-0.24-0.11-0.24-0.24s0.11-0.24,0.24-0.24
			h1.45c0.13,0,0.24,0.11,0.24,0.24S261.63,224.29,261.5,224.29z M258.59,224.29h-1.45c-0.13,0-0.24-0.11-0.24-0.24
			s0.11-0.24,0.24-0.24h1.45c0.13,0,0.24,0.11,0.24,0.24S258.72,224.29,258.59,224.29z M255.68,224.29h-1.45
			c-0.13,0-0.24-0.11-0.24-0.24s0.11-0.24,0.24-0.24h1.45c0.13,0,0.24,0.11,0.24,0.24S255.81,224.29,255.68,224.29z M252.77,224.29
			h-1.45c-0.13,0-0.24-0.11-0.24-0.24s0.11-0.24,0.24-0.24h1.45c0.13,0,0.24,0.11,0.24,0.24S252.9,224.29,252.77,224.29z
			 M249.86,224.29h-1.45c-0.13,0-0.24-0.11-0.24-0.24s0.11-0.24,0.24-0.24h1.45c0.13,0,0.24,0.11,0.24,0.24
			S249.99,224.29,249.86,224.29z M246.95,224.29h-1.45c-0.13,0-0.24-0.11-0.24-0.24s0.11-0.24,0.24-0.24h1.45
			c0.13,0,0.24,0.11,0.24,0.24S247.08,224.29,246.95,224.29z M244.04,224.29h-1.45c-0.13,0-0.24-0.11-0.24-0.24s0.11-0.24,0.24-0.24
			h1.45c0.13,0,0.24,0.11,0.24,0.24S244.18,224.29,244.04,224.29z M241.13,224.29h-1.4c-0.02,0-0.04,0-0.06,0
			c-0.13-0.01-0.24-0.12-0.23-0.25c0.01-0.13,0.11-0.23,0.25-0.23c0.01,0,0.03,0,0.04,0h1.4c0.13,0,0.24,0.11,0.24,0.24
			S241.27,224.29,241.13,224.29z M268.27,223.36C268.26,223.36,268.26,223.36,268.27,223.36c-0.14,0-0.25-0.12-0.24-0.25l0-0.02
			v-1.42c0-0.13,0.11-0.24,0.24-0.24c0.13,0,0.24,0.11,0.24,0.24l0,1.46C268.5,223.26,268.4,223.36,268.27,223.36z M238.78,223.33
			c-0.13,0-0.24-0.11-0.24-0.24v-1.45c0-0.13,0.11-0.24,0.24-0.24c0.13,0,0.24,0.11,0.24,0.24v1.45
			C239.02,223.22,238.91,223.33,238.78,223.33z M268.27,220.46c-0.13,0-0.24-0.11-0.24-0.24v-1.45c0-0.13,0.11-0.24,0.24-0.24
			c0.13,0,0.24,0.11,0.24,0.24v1.45C268.51,220.35,268.4,220.46,268.27,220.46z M238.78,220.42c-0.13,0-0.24-0.11-0.24-0.24v-1.45
			c0-0.13,0.11-0.24,0.24-0.24c0.13,0,0.24,0.11,0.24,0.24v1.45C239.02,220.31,238.91,220.42,238.78,220.42z M268.27,217.55
			c-0.13,0-0.24-0.11-0.24-0.24v-1.45c0-0.13,0.11-0.24,0.24-0.24c0.13,0,0.24,0.11,0.24,0.24v1.45
			C268.51,217.44,268.4,217.55,268.27,217.55z M238.78,217.51c-0.13,0-0.24-0.11-0.24-0.24v-1.42c0-0.02,0-0.03,0-0.05
			c0.01-0.13,0.11-0.24,0.25-0.23c0.13,0.01,0.24,0.12,0.23,0.25l0,0.03v1.42C239.02,217.4,238.91,217.51,238.78,217.51z
			 M267.36,215.14c0,0-0.01,0-0.01,0l-0.03,0h-1.41c-0.13,0-0.24-0.11-0.24-0.24s0.11-0.24,0.24-0.24h1.41c0.02,0,0.04,0,0.06,0
			c0.13,0.01,0.24,0.12,0.23,0.25C267.59,215.04,267.49,215.14,267.36,215.14z M264.45,215.14H263c-0.13,0-0.24-0.11-0.24-0.24
			s0.11-0.24,0.24-0.24h1.45c0.13,0,0.24,0.11,0.24,0.24S264.58,215.14,264.45,215.14z M261.54,215.14h-1.45
			c-0.13,0-0.24-0.11-0.24-0.24s0.11-0.24,0.24-0.24h1.45c0.13,0,0.24,0.11,0.24,0.24S261.67,215.14,261.54,215.14z M258.63,215.14
			h-1.45c-0.13,0-0.24-0.11-0.24-0.24s0.11-0.24,0.24-0.24h1.45c0.13,0,0.24,0.11,0.24,0.24S258.77,215.14,258.63,215.14z
			 M255.72,215.14h-1.45c-0.13,0-0.24-0.11-0.24-0.24s0.11-0.24,0.24-0.24h1.45c0.13,0,0.24,0.11,0.24,0.24
			S255.86,215.14,255.72,215.14z M252.81,215.14h-1.45c-0.13,0-0.24-0.11-0.24-0.24s0.11-0.24,0.24-0.24h1.45
			c0.13,0,0.24,0.11,0.24,0.24S252.95,215.14,252.81,215.14z M249.91,215.14h-1.45c-0.13,0-0.24-0.11-0.24-0.24s0.11-0.24,0.24-0.24
			h1.45c0.13,0,0.24,0.11,0.24,0.24S250.04,215.14,249.91,215.14z M247,215.14h-1.45c-0.13,0-0.24-0.11-0.24-0.24
			s0.11-0.24,0.24-0.24H247c0.13,0,0.24,0.11,0.24,0.24S247.13,215.14,247,215.14z M244.09,215.14h-1.45
			c-0.13,0-0.24-0.11-0.24-0.24s0.11-0.24,0.24-0.24h1.45c0.13,0,0.24,0.11,0.24,0.24S244.22,215.14,244.09,215.14z M241.18,215.14
			h-1.45c-0.13,0-0.24-0.11-0.24-0.24s0.1-0.24,0.24-0.24h1.45c0.13,0,0.24,0.11,0.24,0.24S241.31,215.14,241.18,215.14z"/>
	</g>
	<g>
		<path class="st4" d="M163.43,137.48h-1.62c-0.15,0-0.27-0.12-0.27-0.27c0-0.15,0.12-0.27,0.27-0.27h1.61
			c0.15,0,0.28,0.12,0.28,0.27C163.7,137.36,163.58,137.48,163.43,137.48z M160.21,137.48h-1.61c-0.15,0-0.27-0.12-0.27-0.27
			c0-0.15,0.12-0.27,0.27-0.27h1.61c0.15,0,0.27,0.12,0.27,0.27C160.48,137.36,160.36,137.48,160.21,137.48z M156.99,137.48h-1.61
			c-0.15,0-0.27-0.12-0.27-0.27c0-0.15,0.12-0.27,0.27-0.27h1.61c0.15,0,0.27,0.12,0.27,0.27
			C157.26,137.36,157.14,137.48,156.99,137.48z M153.77,137.48h-1.61c-0.15,0-0.27-0.12-0.27-0.27c0-0.15,0.12-0.27,0.27-0.27h1.61
			c0.15,0,0.27,0.12,0.27,0.27C154.04,137.36,153.92,137.48,153.77,137.48z M150.55,137.48h-1.61c-0.15,0-0.27-0.12-0.27-0.27
			c0-0.15,0.12-0.27,0.27-0.27h1.61c0.15,0,0.27,0.12,0.27,0.27C150.82,137.36,150.7,137.48,150.55,137.48z M147.33,137.48h-1.61
			c-0.15,0-0.27-0.12-0.27-0.27c0-0.15,0.12-0.27,0.27-0.27h1.61c0.15,0,0.27,0.12,0.27,0.27
			C147.6,137.36,147.48,137.48,147.33,137.48z M144.11,137.48h-1.61c-0.15,0-0.27-0.12-0.27-0.27c0-0.15,0.12-0.27,0.27-0.27h1.61
			c0.15,0,0.27,0.12,0.27,0.27C144.38,137.36,144.26,137.48,144.11,137.48z M140.92,137.31c-0.05,0-0.09-0.01-0.13-0.04
			c-0.5-0.29-0.82-0.82-0.82-1.4v-0.2c0-0.15,0.12-0.27,0.27-0.27c0.15,0,0.27,0.12,0.27,0.27v0.2c0,0.38,0.21,0.74,0.54,0.93
			c0.13,0.07,0.18,0.24,0.1,0.37C141.11,137.26,141.02,137.31,140.92,137.31z M164.68,136.62c-0.03,0-0.06-0.01-0.1-0.02
			c-0.14-0.05-0.21-0.21-0.16-0.35c0.05-0.12,0.07-0.25,0.07-0.38v-1.13c0-0.15,0.12-0.27,0.27-0.27c0.15,0,0.27,0.12,0.27,0.27
			v1.13c0,0.19-0.03,0.39-0.1,0.57C164.89,136.55,164.79,136.62,164.68,136.62z M140.24,134.34c-0.15,0-0.27-0.12-0.27-0.27v-1.61
			c0-0.15,0.12-0.27,0.27-0.27c0.15,0,0.27,0.12,0.27,0.27v1.61C140.51,134.22,140.39,134.34,140.24,134.34z M164.76,133.41
			c-0.15,0-0.27-0.12-0.27-0.27v-1.61c0-0.15,0.12-0.27,0.27-0.27c0.15,0,0.27,0.12,0.27,0.27v1.61
			C165.03,133.29,164.91,133.41,164.76,133.41z M140.24,131.12c-0.15,0-0.27-0.12-0.27-0.27v-1.61c0-0.15,0.12-0.27,0.27-0.27
			c0.15,0,0.27,0.12,0.27,0.27v1.61C140.51,131,140.39,131.12,140.24,131.12z M164.76,130.19c-0.15,0-0.27-0.12-0.27-0.27v-1.61
			c0-0.15,0.12-0.27,0.27-0.27c0.15,0,0.27,0.12,0.27,0.27v1.61C165.03,130.07,164.91,130.19,164.76,130.19z M140.24,127.9
			c-0.15,0-0.27-0.12-0.27-0.27v-1.61c0-0.15,0.12-0.27,0.27-0.27c0.15,0,0.27,0.12,0.27,0.27v1.61
			C140.51,127.78,140.39,127.9,140.24,127.9z M164.76,126.97c-0.15,0-0.27-0.12-0.27-0.27v-1.61c0-0.15,0.12-0.27,0.27-0.27
			c0.15,0,0.27,0.12,0.27,0.27v1.61C165.03,126.85,164.91,126.97,164.76,126.97z M140.24,124.68c-0.15,0-0.27-0.12-0.27-0.27v-1.61
			c0-0.15,0.12-0.27,0.27-0.27c0.15,0,0.27,0.12,0.27,0.27v1.61C140.51,124.56,140.39,124.68,140.24,124.68z M164.76,123.75
			c-0.15,0-0.27-0.12-0.27-0.27v-1.61c0-0.15,0.12-0.27,0.27-0.27c0.15,0,0.27,0.12,0.27,0.27v1.61
			C165.03,123.63,164.91,123.75,164.76,123.75z M140.24,121.46c-0.15,0-0.27-0.12-0.27-0.27v-1.61c0-0.15,0.12-0.27,0.27-0.27
			c0.15,0,0.27,0.12,0.27,0.27v1.61C140.51,121.34,140.39,121.46,140.24,121.46z M164.76,120.53c-0.15,0-0.27-0.12-0.27-0.27v-1.61
			c0-0.15,0.12-0.27,0.27-0.27c0.15,0,0.27,0.12,0.27,0.27v1.61C165.03,120.41,164.91,120.53,164.76,120.53z M140.24,118.25
			c-0.15,0-0.27-0.12-0.27-0.27v-1.12c0-0.2,0.04-0.39,0.1-0.57c0.05-0.14,0.21-0.21,0.35-0.16c0.14,0.05,0.21,0.21,0.16,0.35
			c-0.05,0.12-0.07,0.25-0.07,0.38v1.12C140.51,118.12,140.39,118.25,140.24,118.25z M164.76,117.31c-0.15,0-0.27-0.12-0.27-0.27
			v-0.19c0-0.38-0.21-0.74-0.54-0.93c-0.13-0.07-0.18-0.24-0.1-0.37c0.07-0.13,0.24-0.18,0.37-0.1c0.51,0.28,0.82,0.82,0.82,1.4
			v0.19C165.03,117.19,164.91,117.31,164.76,117.31z M162.5,115.78h-1.61c-0.15,0-0.27-0.12-0.27-0.27s0.12-0.27,0.27-0.27h1.61
			c0.15,0,0.27,0.12,0.27,0.27S162.65,115.78,162.5,115.78z M159.28,115.78h-1.61c-0.15,0-0.27-0.12-0.27-0.27s0.12-0.27,0.27-0.27
			h1.61c0.15,0,0.27,0.12,0.27,0.27S159.43,115.78,159.28,115.78z M156.06,115.78h-1.61c-0.15,0-0.27-0.12-0.27-0.27
			s0.12-0.27,0.27-0.27h1.61c0.15,0,0.27,0.12,0.27,0.27S156.21,115.78,156.06,115.78z M152.84,115.78h-1.61
			c-0.15,0-0.27-0.12-0.27-0.27s0.12-0.27,0.27-0.27h1.61c0.15,0,0.27,0.12,0.27,0.27S152.99,115.78,152.84,115.78z M149.62,115.78
			h-1.61c-0.15,0-0.27-0.12-0.27-0.27s0.12-0.27,0.27-0.27h1.61c0.15,0,0.27,0.12,0.27,0.27S149.77,115.78,149.62,115.78z
			 M146.4,115.78h-1.61c-0.15,0-0.27-0.12-0.27-0.27s0.12-0.27,0.27-0.27h1.61c0.15,0,0.27,0.12,0.27,0.27
			S146.55,115.78,146.4,115.78z M143.18,115.78h-1.6c-0.15,0-0.27-0.12-0.27-0.27s0.12-0.27,0.27-0.27h1.61
			c0.15,0,0.27,0.12,0.27,0.27S143.33,115.78,143.18,115.78z"/>
	</g>
	<g>
		<path class="st4" d="M267.33,237.71h-1.47c-0.13,0-0.24-0.11-0.24-0.24c0-0.13,0.11-0.24,0.24-0.24h1.45
			c0.13,0,0.25,0.11,0.25,0.24C267.56,237.6,267.46,237.71,267.33,237.71z M264.41,237.71h-1.45c-0.13,0-0.24-0.11-0.24-0.24
			c0-0.13,0.11-0.24,0.24-0.24h1.45c0.13,0,0.24,0.11,0.24,0.24C264.65,237.6,264.54,237.71,264.41,237.71z M261.5,237.71h-1.45
			c-0.13,0-0.24-0.11-0.24-0.24c0-0.13,0.11-0.24,0.24-0.24h1.45c0.13,0,0.24,0.11,0.24,0.24
			C261.74,237.6,261.63,237.71,261.5,237.71z M258.59,237.71h-1.45c-0.13,0-0.24-0.11-0.24-0.24c0-0.13,0.11-0.24,0.24-0.24h1.45
			c0.13,0,0.24,0.11,0.24,0.24C258.83,237.6,258.72,237.71,258.59,237.71z M255.68,237.71h-1.45c-0.13,0-0.24-0.11-0.24-0.24
			c0-0.13,0.11-0.24,0.24-0.24h1.45c0.13,0,0.24,0.11,0.24,0.24C255.92,237.6,255.81,237.71,255.68,237.71z M252.77,237.71h-1.45
			c-0.13,0-0.24-0.11-0.24-0.24c0-0.13,0.11-0.24,0.24-0.24h1.45c0.13,0,0.24,0.11,0.24,0.24
			C253.01,237.6,252.9,237.71,252.77,237.71z M249.86,237.71h-1.45c-0.13,0-0.24-0.11-0.24-0.24c0-0.13,0.11-0.24,0.24-0.24h1.45
			c0.13,0,0.24,0.11,0.24,0.24C250.1,237.6,249.99,237.71,249.86,237.71z M246.95,237.71h-1.45c-0.13,0-0.24-0.11-0.24-0.24
			c0-0.13,0.11-0.24,0.24-0.24h1.45c0.13,0,0.24,0.11,0.24,0.24C247.19,237.6,247.08,237.71,246.95,237.71z M244.04,237.71h-1.45
			c-0.13,0-0.24-0.11-0.24-0.24c0-0.13,0.11-0.24,0.24-0.24h1.45c0.13,0,0.24,0.11,0.24,0.24
			C244.28,237.6,244.18,237.71,244.04,237.71z M241.13,237.71h-1.4c-0.02,0-0.04,0-0.06,0c-0.13-0.01-0.24-0.12-0.23-0.25
			c0.01-0.13,0.11-0.24,0.25-0.23c0.01,0,0.03,0,0.04,0h1.4c0.13,0,0.24,0.11,0.24,0.24C241.37,237.6,241.27,237.71,241.13,237.71z
			 M268.27,236.79C268.26,236.79,268.26,236.79,268.27,236.79c-0.14,0-0.25-0.12-0.24-0.25l0-0.02v-1.42c0-0.13,0.11-0.24,0.24-0.24
			c0.13,0,0.24,0.11,0.24,0.24l0,1.46C268.5,236.69,268.4,236.79,268.27,236.79z M238.78,236.75c-0.13,0-0.24-0.11-0.24-0.24v-1.45
			c0-0.13,0.11-0.24,0.24-0.24c0.13,0,0.24,0.11,0.24,0.24v1.45C239.02,236.64,238.91,236.75,238.78,236.75z M268.27,233.88
			c-0.13,0-0.24-0.11-0.24-0.24v-1.45c0-0.13,0.11-0.24,0.24-0.24c0.13,0,0.24,0.11,0.24,0.24v1.45
			C268.51,233.77,268.4,233.88,268.27,233.88z M238.78,233.84c-0.13,0-0.24-0.11-0.24-0.24v-1.45c0-0.13,0.11-0.24,0.24-0.24
			c0.13,0,0.24,0.11,0.24,0.24v1.45C239.02,233.73,238.91,233.84,238.78,233.84z M268.27,230.97c-0.13,0-0.24-0.11-0.24-0.24v-1.45
			c0-0.13,0.11-0.24,0.24-0.24c0.13,0,0.24,0.11,0.24,0.24v1.45C268.51,230.86,268.4,230.97,268.27,230.97z M238.78,230.93
			c-0.13,0-0.24-0.11-0.24-0.24v-1.42c0-0.02,0-0.03,0-0.05c0.01-0.13,0.11-0.24,0.25-0.23c0.13,0.01,0.24,0.12,0.23,0.25l0,0.03
			v1.42C239.02,230.82,238.91,230.93,238.78,230.93z M267.36,228.56c0,0-0.01,0-0.01,0l-0.03,0h-1.41c-0.13,0-0.24-0.11-0.24-0.24
			c0-0.13,0.11-0.24,0.24-0.24h1.41c0.02,0,0.04,0,0.06,0c0.13,0.01,0.24,0.12,0.23,0.25C267.59,228.46,267.49,228.56,267.36,228.56
			z M264.45,228.56H263c-0.13,0-0.24-0.11-0.24-0.24c0-0.13,0.11-0.24,0.24-0.24h1.45c0.13,0,0.24,0.11,0.24,0.24
			C264.69,228.45,264.58,228.56,264.45,228.56z M261.54,228.56h-1.45c-0.13,0-0.24-0.11-0.24-0.24c0-0.13,0.11-0.24,0.24-0.24h1.45
			c0.13,0,0.24,0.11,0.24,0.24C261.78,228.45,261.67,228.56,261.54,228.56z M258.63,228.56h-1.45c-0.13,0-0.24-0.11-0.24-0.24
			c0-0.13,0.11-0.24,0.24-0.24h1.45c0.13,0,0.24,0.11,0.24,0.24C258.87,228.45,258.77,228.56,258.63,228.56z M255.72,228.56h-1.45
			c-0.13,0-0.24-0.11-0.24-0.24c0-0.13,0.11-0.24,0.24-0.24h1.45c0.13,0,0.24,0.11,0.24,0.24
			C255.96,228.45,255.86,228.56,255.72,228.56z M252.81,228.56h-1.45c-0.13,0-0.24-0.11-0.24-0.24c0-0.13,0.11-0.24,0.24-0.24h1.45
			c0.13,0,0.24,0.11,0.24,0.24C253.05,228.45,252.95,228.56,252.81,228.56z M249.91,228.56h-1.45c-0.13,0-0.24-0.11-0.24-0.24
			c0-0.13,0.11-0.24,0.24-0.24h1.45c0.13,0,0.24,0.11,0.24,0.24C250.15,228.45,250.04,228.56,249.91,228.56z M247,228.56h-1.45
			c-0.13,0-0.24-0.11-0.24-0.24c0-0.13,0.11-0.24,0.24-0.24H247c0.13,0,0.24,0.11,0.24,0.24C247.24,228.45,247.13,228.56,247,228.56
			z M244.09,228.56h-1.45c-0.13,0-0.24-0.11-0.24-0.24c0-0.13,0.11-0.24,0.24-0.24h1.45c0.13,0,0.24,0.11,0.24,0.24
			C244.33,228.45,244.22,228.56,244.09,228.56z M241.18,228.56h-1.45c-0.13,0-0.24-0.11-0.24-0.24c0-0.13,0.1-0.24,0.24-0.24h1.45
			c0.13,0,0.24,0.11,0.24,0.24C241.42,228.45,241.31,228.56,241.18,228.56z"/>
	</g>
	<g>
		<path class="st4" d="M152.54,227.6h-1.45c-0.13,0-0.24-0.11-0.24-0.24s0.11-0.24,0.24-0.24h1.44c0.13,0,0.25,0.11,0.25,0.24
			S152.67,227.6,152.54,227.6z M149.65,227.6h-1.44c-0.13,0-0.24-0.11-0.24-0.24s0.11-0.24,0.24-0.24h1.44
			c0.13,0,0.24,0.11,0.24,0.24S149.78,227.6,149.65,227.6z M146.76,227.6h-1.44c-0.13,0-0.24-0.11-0.24-0.24s0.11-0.24,0.24-0.24
			h1.44c0.13,0,0.24,0.11,0.24,0.24S146.9,227.6,146.76,227.6z M143.88,227.6h-1.44c-0.13,0-0.24-0.11-0.24-0.24
			s0.11-0.24,0.24-0.24h1.44c0.13,0,0.24,0.11,0.24,0.24S144.01,227.6,143.88,227.6z M141,227.6h-1.44c-0.13,0-0.24-0.11-0.24-0.24
			s0.11-0.24,0.24-0.24H141c0.13,0,0.24,0.11,0.24,0.24S141.13,227.6,141,227.6z M138.11,227.6h-1.44c-0.13,0-0.24-0.11-0.24-0.24
			s0.11-0.24,0.24-0.24h1.44c0.13,0,0.24,0.11,0.24,0.24S138.24,227.6,138.11,227.6z M135.23,227.6h-1.44
			c-0.13,0-0.24-0.11-0.24-0.24s0.11-0.24,0.24-0.24h1.44c0.13,0,0.24,0.11,0.24,0.24S135.36,227.6,135.23,227.6z M132.34,227.6
			h-1.44c-0.13,0-0.24-0.11-0.24-0.24s0.11-0.24,0.24-0.24h1.44c0.13,0,0.24,0.11,0.24,0.24S132.48,227.6,132.34,227.6z
			 M129.46,227.6h-1.44c-0.13,0-0.24-0.11-0.24-0.24s0.11-0.24,0.24-0.24h1.44c0.13,0,0.24,0.11,0.24,0.24
			S129.59,227.6,129.46,227.6z M126.58,227.6h-1.44c-0.13,0-0.24-0.11-0.24-0.24s0.11-0.24,0.24-0.24h1.44
			c0.13,0,0.24,0.11,0.24,0.24S126.71,227.6,126.58,227.6z M123.69,227.6h-1.44c-0.13,0-0.24-0.11-0.24-0.24s0.11-0.24,0.24-0.24
			h1.44c0.13,0,0.24,0.11,0.24,0.24S123.82,227.6,123.69,227.6z M120.81,227.6h-1.44c-0.13,0-0.24-0.11-0.24-0.24
			s0.11-0.24,0.24-0.24h1.44c0.13,0,0.24,0.11,0.24,0.24S120.94,227.6,120.81,227.6z M117.92,227.6h-1.44
			c-0.13,0-0.24-0.11-0.24-0.24s0.11-0.24,0.24-0.24h1.44c0.13,0,0.24,0.11,0.24,0.24S118.06,227.6,117.92,227.6z M115.04,227.6
			h-1.44c-0.13,0-0.24-0.11-0.24-0.24s0.11-0.24,0.24-0.24h1.44c0.13,0,0.24,0.11,0.24,0.24S115.17,227.6,115.04,227.6z
			 M112.16,227.6h-1.44c-0.13,0-0.24-0.11-0.24-0.24s0.11-0.24,0.24-0.24h1.44c0.13,0,0.24,0.11,0.24,0.24
			S112.29,227.6,112.16,227.6z M109.27,227.6h-1.15c-0.11,0-0.21-0.01-0.32-0.02c-0.13-0.02-0.23-0.14-0.21-0.27
			c0.02-0.13,0.14-0.23,0.27-0.21c0.09,0.01,0.17,0.02,0.26,0.02h1.15c0.13,0,0.24,0.11,0.24,0.24S109.41,227.6,109.27,227.6z
			 M153.9,227.18c-0.08,0-0.15-0.04-0.2-0.11c-0.07-0.11-0.04-0.26,0.07-0.33c0.36-0.24,0.65-0.59,0.81-0.99
			c0.05-0.12,0.19-0.18,0.31-0.13c0.12,0.05,0.18,0.19,0.13,0.31c-0.2,0.49-0.55,0.91-0.99,1.21
			C153.99,227.17,153.95,227.18,153.9,227.18z M106.53,227.01c-0.06,0-0.11-0.02-0.16-0.06c-0.41-0.35-0.7-0.8-0.85-1.31
			c-0.04-0.13,0.04-0.26,0.17-0.3c0.13-0.04,0.26,0.04,0.3,0.17c0.12,0.42,0.36,0.79,0.69,1.08c0.1,0.09,0.11,0.24,0.03,0.34
			C106.66,226.98,106.6,227.01,106.53,227.01z M154.99,224.66c-0.13,0-0.24-0.11-0.24-0.24v-1.44c0-0.13,0.11-0.24,0.24-0.24
			s0.24,0.11,0.24,0.24v1.44C155.23,224.56,155.12,224.66,154.99,224.66z M105.66,224.38c-0.13,0-0.24-0.11-0.24-0.24v-1.44
			c0-0.13,0.11-0.24,0.24-0.24c0.13,0,0.24,0.11,0.24,0.24v1.44C105.91,224.28,105.8,224.38,105.66,224.38z M154.99,221.78
			c-0.13,0-0.24-0.11-0.24-0.24v-1.44c0-0.13,0.11-0.24,0.24-0.24s0.24,0.11,0.24,0.24v1.44
			C155.23,221.67,155.12,221.78,154.99,221.78z M105.66,221.5c-0.13,0-0.24-0.11-0.24-0.24v-1.44c0-0.13,0.11-0.24,0.24-0.24
			c0.13,0,0.24,0.11,0.24,0.24v1.44C105.91,221.39,105.8,221.5,105.66,221.5z M154.99,218.9c-0.13,0-0.24-0.11-0.24-0.24v-1.44
			c0-0.13,0.11-0.24,0.24-0.24s0.24,0.11,0.24,0.24v1.44C155.23,218.79,155.12,218.9,154.99,218.9z M105.66,218.62
			c-0.13,0-0.24-0.11-0.24-0.24v-1.44c0-0.13,0.11-0.24,0.24-0.24c0.13,0,0.24,0.11,0.24,0.24v1.44
			C105.91,218.51,105.8,218.62,105.66,218.62z M154.99,216.01c-0.13,0-0.24-0.11-0.24-0.24v-1.44c0-0.13,0.11-0.24,0.24-0.24
			s0.24,0.11,0.24,0.24v1.44C155.23,215.9,155.12,216.01,154.99,216.01z M105.66,215.73c-0.13,0-0.24-0.11-0.24-0.24v-1.44
			c0-0.13,0.11-0.24,0.24-0.24c0.13,0,0.24,0.11,0.24,0.24v1.44C105.91,215.62,105.8,215.73,105.66,215.73z M154.99,213.13
			c-0.13,0-0.24-0.11-0.24-0.24v-1.44c0-0.13,0.11-0.24,0.24-0.24s0.24,0.11,0.24,0.24v1.44
			C155.23,213.02,155.12,213.13,154.99,213.13z M105.66,212.85c-0.13,0-0.24-0.11-0.24-0.24v-1.44c0-0.13,0.11-0.24,0.24-0.24
			c0.13,0,0.24,0.11,0.24,0.24v1.44C105.91,212.74,105.8,212.85,105.66,212.85z M154.99,210.24c-0.13,0-0.24-0.11-0.24-0.24v-1.44
			c0-0.13,0.11-0.24,0.24-0.24s0.24,0.11,0.24,0.24V210C155.23,210.14,155.12,210.24,154.99,210.24z M105.66,209.96
			c-0.13,0-0.24-0.11-0.24-0.24v-1.44c0-0.13,0.11-0.24,0.24-0.24c0.13,0,0.24,0.11,0.24,0.24v1.44
			C105.91,209.86,105.8,209.96,105.66,209.96z M154.99,207.36c-0.13,0-0.24-0.11-0.24-0.24v-1.44c0-0.13,0.11-0.24,0.24-0.24
			s0.24,0.11,0.24,0.24v1.44C155.23,207.25,155.12,207.36,154.99,207.36z M105.66,207.08c-0.13,0-0.24-0.11-0.24-0.24v-1.44
			c0-0.13,0.11-0.24,0.24-0.24c0.13,0,0.24,0.11,0.24,0.24v1.44C105.91,206.97,105.8,207.08,105.66,207.08z M154.99,204.48
			c-0.13,0-0.24-0.11-0.24-0.24v-1.44c0-0.13,0.11-0.24,0.24-0.24s0.24,0.11,0.24,0.24v1.44
			C155.23,204.37,155.12,204.48,154.99,204.48z M105.66,204.2c-0.13,0-0.24-0.11-0.24-0.24v-1.44c0-0.13,0.11-0.24,0.24-0.24
			c0.13,0,0.24,0.11,0.24,0.24v1.44C105.91,204.09,105.8,204.2,105.66,204.2z M154.99,201.59c-0.13,0-0.24-0.11-0.24-0.24v-1.44
			c0-0.13,0.11-0.24,0.24-0.24s0.24,0.11,0.24,0.24v1.44C155.23,201.49,155.12,201.59,154.99,201.59z M105.66,201.31
			c-0.13,0-0.24-0.11-0.24-0.24v-1.44c0-0.13,0.11-0.24,0.24-0.24c0.13,0,0.24,0.11,0.24,0.24v1.44
			C105.91,201.2,105.8,201.31,105.66,201.31z M154.99,198.71c-0.13,0-0.24-0.11-0.24-0.24v-1.44c0-0.13,0.11-0.24,0.24-0.24
			s0.24,0.11,0.24,0.24v1.44C155.23,198.6,155.12,198.71,154.99,198.71z M105.66,198.43c-0.13,0-0.24-0.11-0.24-0.24v-1.44
			c0-0.13,0.11-0.24,0.24-0.24c0.13,0,0.24,0.11,0.24,0.24v1.44C105.91,198.32,105.8,198.43,105.66,198.43z M154.99,195.83
			c-0.13,0-0.24-0.11-0.24-0.24v-1.44c0-0.13,0.11-0.24,0.24-0.24s0.24,0.11,0.24,0.24v1.44
			C155.23,195.72,155.12,195.83,154.99,195.83z M105.66,195.54c-0.13,0-0.24-0.11-0.24-0.24v-1.44c0-0.13,0.11-0.24,0.24-0.24
			c0.13,0,0.24,0.11,0.24,0.24v1.44C105.91,195.44,105.8,195.54,105.66,195.54z M154.89,192.95c-0.1,0-0.2-0.07-0.23-0.17
			c-0.12-0.42-0.36-0.79-0.7-1.08c-0.1-0.09-0.11-0.24-0.03-0.34c0.09-0.1,0.24-0.11,0.34-0.03c0.41,0.35,0.7,0.8,0.85,1.31
			c0.04,0.13-0.04,0.26-0.16,0.3C154.94,192.95,154.91,192.95,154.89,192.95z M105.85,192.69c-0.03,0-0.06-0.01-0.09-0.02
			c-0.12-0.05-0.18-0.19-0.13-0.31c0.21-0.49,0.55-0.91,0.99-1.2c0.11-0.07,0.26-0.04,0.33,0.07c0.07,0.11,0.04,0.26-0.07,0.33
			c-0.36,0.24-0.65,0.59-0.82,0.99C106.04,192.63,105.95,192.69,105.85,192.69z M152.82,191.19c-0.01,0-0.02,0-0.03,0
			c-0.09-0.01-0.17-0.01-0.26-0.01h-1.16c-0.13,0-0.24-0.11-0.24-0.24s0.11-0.24,0.24-0.24h1.16c0.1,0,0.21,0.01,0.31,0.02
			c0.13,0.02,0.23,0.13,0.21,0.27C153.04,191.1,152.94,191.19,152.82,191.19z M149.93,191.18h-1.44c-0.13,0-0.24-0.11-0.24-0.24
			s0.11-0.24,0.24-0.24h1.44c0.13,0,0.24,0.11,0.24,0.24S150.07,191.18,149.93,191.18z M147.05,191.18h-1.44
			c-0.13,0-0.24-0.11-0.24-0.24s0.11-0.24,0.24-0.24h1.44c0.13,0,0.24,0.11,0.24,0.24S147.18,191.18,147.05,191.18z M144.17,191.18
			h-1.44c-0.13,0-0.24-0.11-0.24-0.24s0.11-0.24,0.24-0.24h1.44c0.13,0,0.24,0.11,0.24,0.24S144.3,191.18,144.17,191.18z
			 M141.28,191.18h-1.44c-0.13,0-0.24-0.11-0.24-0.24s0.11-0.24,0.24-0.24h1.44c0.13,0,0.24,0.11,0.24,0.24
			S141.41,191.18,141.28,191.18z M138.4,191.18h-1.44c-0.13,0-0.24-0.11-0.24-0.24s0.11-0.24,0.24-0.24h1.44
			c0.13,0,0.24,0.11,0.24,0.24S138.53,191.18,138.4,191.18z M135.51,191.18h-1.44c-0.13,0-0.24-0.11-0.24-0.24s0.11-0.24,0.24-0.24
			h1.44c0.13,0,0.24,0.11,0.24,0.24S135.65,191.18,135.51,191.18z M132.63,191.18h-1.44c-0.13,0-0.24-0.11-0.24-0.24
			s0.11-0.24,0.24-0.24h1.44c0.13,0,0.24,0.11,0.24,0.24S132.76,191.18,132.63,191.18z M129.75,191.18h-1.44
			c-0.13,0-0.24-0.11-0.24-0.24s0.11-0.24,0.24-0.24h1.44c0.13,0,0.24,0.11,0.24,0.24S129.88,191.18,129.75,191.18z M126.86,191.18
			h-1.44c-0.13,0-0.24-0.11-0.24-0.24s0.11-0.24,0.24-0.24h1.44c0.13,0,0.24,0.11,0.24,0.24S126.99,191.18,126.86,191.18z
			 M123.98,191.18h-1.44c-0.13,0-0.24-0.11-0.24-0.24s0.11-0.24,0.24-0.24h1.44c0.13,0,0.24,0.11,0.24,0.24
			S124.11,191.18,123.98,191.18z M121.09,191.18h-1.44c-0.13,0-0.24-0.11-0.24-0.24s0.11-0.24,0.24-0.24h1.44
			c0.13,0,0.24,0.11,0.24,0.24S121.23,191.18,121.09,191.18z M118.21,191.18h-1.44c-0.13,0-0.24-0.11-0.24-0.24s0.11-0.24,0.24-0.24
			h1.44c0.13,0,0.24,0.11,0.24,0.24S118.34,191.18,118.21,191.18z M115.33,191.18h-1.44c-0.13,0-0.24-0.11-0.24-0.24
			s0.11-0.24,0.24-0.24h1.44c0.13,0,0.24,0.11,0.24,0.24S115.46,191.18,115.33,191.18z M112.44,191.18H111
			c-0.13,0-0.24-0.11-0.24-0.24s0.11-0.24,0.24-0.24h1.44c0.13,0,0.24,0.11,0.24,0.24S112.58,191.18,112.44,191.18z M109.56,191.18
			h-1.44c-0.13,0-0.24-0.11-0.24-0.24s0.11-0.24,0.24-0.24h1.44c0.13,0,0.24,0.11,0.24,0.24S109.69,191.18,109.56,191.18z"/>
	</g>
	<g>
		<path class="st0" d="M159.26,183.4h-43.69c-5.29,0-9.57-4.29-9.57-9.57v-17.27c0-5.29,4.29-9.57,9.57-9.57h43.69
			c5.29,0,9.57,4.29,9.57,9.57v17.28C168.83,179.11,164.55,183.4,159.26,183.4z"/>
		<path class="st3" d="M130.33,157.96v14.45c0,0.9,1,1.45,1.76,0.95l10.98-7.22c0.68-0.45,0.68-1.45,0-1.9l-10.98-7.22
			C131.33,156.52,130.33,157.06,130.33,157.96z"/>
		<g>
			<path class="st11" d="M109.27,180.11c0-0.62,0.5-1.13,1.13-1.13c0.62,0,1.13,0.5,1.13,1.13c0,0.62-0.5,1.13-1.13,1.13
				C109.77,181.24,109.27,180.74,109.27,180.11z"/>
			<path class="st11" d="M161.7,180.42h-51c-0.17,0-0.3-0.14-0.3-0.3l0,0c0-0.17,0.14-0.3,0.3-0.3h51c0.17,0,0.3,0.14,0.3,0.3l0,0
				C162.01,180.28,161.87,180.42,161.7,180.42z"/>
		</g>
	</g>
	<rect x="164.76" y="190.93" class="st0" width="32.51" height="48.53"/>
	<g>
		<g>
			<g>
				<path class="st6" d="M184.14,206.53h-0.44v-2c0-0.72,0.58-1.3,1.3-1.3h5.5c0.39,0,0.73-0.26,0.83-0.64l0.87-3.31
					c0.07-0.26,0.01-0.53-0.15-0.74c-0.16-0.21-0.41-0.33-0.68-0.33h-7.18v-0.44h7.18c0.41,0,0.78,0.18,1.03,0.51
					c0.25,0.32,0.33,0.73,0.23,1.13l-0.87,3.31c-0.15,0.57-0.67,0.97-1.26,0.97h-5.5c-0.47,0-0.86,0.38-0.86,0.86V206.53z"/>
			</g>
			<path class="st3" d="M189.09,199.86h-9.02c-0.92,0-1.66-0.74-1.66-1.66v-0.43c0-0.92,0.74-1.66,1.66-1.66h9.02
				c0.92,0,1.66,0.74,1.66,1.66v0.43C190.75,199.12,190.01,199.86,189.09,199.86z"/>
			<path class="st6" d="M183.91,214.83L183.91,214.83c-0.68,0-1.22-0.55-1.22-1.22v-7.41c0-0.68,0.55-1.22,1.22-1.22l0,0
				c0.68,0,1.22,0.55,1.22,1.22v7.41C185.14,214.28,184.59,214.83,183.91,214.83z"/>
		</g>
		<g>
			<path class="st5" d="M230.71,230.9c0,0,0.84,2.59,0.77,3.18c-0.07,0.59-0.6,2.62-0.98,3.14c-0.38,0.52-0.56-2.11-0.86-2.51
				c-0.3-0.4-0.06,0.99-0.27,1.12c-0.21,0.13-0.65-1.02-0.84-1.42c-0.19-0.4,0.46-1.9,0.46-2.94
				C228.99,230.43,230.71,230.9,230.71,230.9z"/>
			<path class="st4" d="M210.92,210.31c-0.23-2.97,2.99-5.01,5.54-3.46c0.05,0.03,0.1,0.06,0.16,0.1
				c3.82,2.46,12.05,13.91,12.61,15.06c0.57,1.15,2.24,10.28,2.24,10.28s-2.07,0.76-3.03-0.03c0,0-3.35-8.66-3.85-9.09
				c-0.5-0.43-13.41-7.68-13.52-10.39C211.05,212.06,210.99,211.2,210.92,210.31z"/>
		</g>
		<g>
			<path class="st12" d="M233.96,277.39c0,0,1.54,1.4,1.24,2.4c-0.3,1-1.69,1.66-1.88,2.88c-0.19,1.22-0.94,1.88-1.61,1.88
				c-0.68,0-3.22,0-3.22,0s-0.5-0.86,0.7-1.12c1.2-0.26,1.65-1.69,1.58-3.02c-0.08-1.33,0.11-3.1,0.11-3.1l2.55-0.59L233.96,277.39z
				"/>
			<path class="st12" d="M215.09,281.02c0,0,0.28,3.19-0.4,3.53l-8.64-0.02c0,0,0-1,1.39-1.22c1.39-0.22,3.83-1.03,4.24-2.84
				C212.09,278.65,215.09,281.02,215.09,281.02z"/>
			<path class="st3" d="M207.79,235.89c0,0,0.46,5.6,0.99,12.33c0.73,9.14,1.6,20.38,1.69,22.51c0.15,3.69,0.75,9.61,0.75,9.61
				s1.43,1.4,4.28,0.81c0,0,2.54-8.44,3.27-17.36c0.01-0.15,0.02-0.29,0.03-0.44c0.68-9.09,1.73-28.22,1.73-28.22L207.79,235.89z"/>
			<path class="st7" d="M207.79,235.89c0,0,0.46,5.6,0.99,12.33l9.99,15.56c0.01-0.15,0.02-0.29,0.03-0.44
				c0.68-9.09,1.73-28.22,1.73-28.22L207.79,235.89z"/>
			<path class="st3" d="M209.87,236.55c0,0,8.22,20.28,13.62,29.81c5.4,9.53,7.09,12.19,7.09,12.19s3.1-1.22,3.38-2.05
				c0,0-2.07-18.4-5.68-22.89c-2.04-2.53-4.45-10.14-4.56-12.8c-0.11-2.66-0.73-7.92-0.73-7.92L209.87,236.55z"/>
		</g>
		<path class="st5" d="M216.96,206.13c0,0-5.51,2.79-8.73,1.86c0,0,0.77-1.01,2.13-1.78c-0.12-0.64-0.22-1.2-0.28-1.67
			c-0.16-1.09-0.17-1.71-0.17-1.71l2.11-1.73l2-1.65C213.96,203.99,216.96,206.13,216.96,206.13z"/>
		<path class="st6" d="M222.43,234.5c-2.22,1.35-4.33,2.36-6.79,2.92c-2.9,0.69-6.47,0.49-7.67,0.67c-0.12,0.02-0.24-0.02-0.35-0.09
			c-0.09-0.05-0.62-3.59-1.15-8.06c-0.02-0.18-0.05-0.36-0.06-0.54l-0.01-0.06c-0.21-1.75-0.39-3.58-0.54-5.43
			c-0.13-1.43-0.23-2.85-0.3-4.18c-0.09-1.66-0.13-3.19-0.09-4.45c0.02-0.57,0.05-1.09,0.1-1.54c0.31-2.61,1.56-4.48,2.73-5.87
			l0.97-1.11c1.13,0.07,2.28-0.14,3.37-0.86c1.19-0.78,2.47-1.62,2.71-1.48c1.82,1,3.31,3.58,4.36,6.99
			c0.61,1.96,1.07,4.19,1.37,6.55c0.1,0.73,0.18,1.48,0.24,2.23c0.01,0.14,0.02,0.28,0.03,0.41c0.14,2.05,0.38,3.96,0.64,5.67
			c0.35,2.31,0.74,4.24,1.02,5.6c0.14,0.69,0.25,1.23,0.31,1.61C223.4,233.83,222.73,234.31,222.43,234.5z"/>
		<path class="st8" d="M214.1,201.18c0,0-1.35,2.59-4.01,3.36c-0.16-1.09-0.17-1.71-0.17-1.71l2.11-1.73L214.1,201.18z"/>
		<path class="st5" d="M208.93,202.78c0,0,5.32,0.76,5.75-2.51c0.43-3.27,1.41-5.37-1.97-6c-3.38-0.62-4.2,0.54-4.62,1.6
			C207.69,196.92,207.56,202.49,208.93,202.78z"/>
		<path class="st4" d="M216.49,193.81c0.05-0.06,0.16-0.1,0.4-0.12c0,0-0.2-0.12-0.46-0.12c-0.06-0.34-0.25-0.95-0.85-1.08
			c0,0,0.32,0.16,0.37,0.53c-0.7-0.69-2.18-1.17-6.23-0.77c-5.35,0.53-3.51,3.92-2.81,4.32c0.7,0.4,2.42-0.76,3.72-0.68
			c1.29,0.08,1.58,1.94,2.02,2.19c0.44,0.25,0.26-0.2,0.85-0.48c0.59-0.28,0.66,0.7,0.5,1.34c-0.16,0.64,0.67,1.47,0.67,1.47
			s0,0,0.81-0.9c0.81-0.9,1.51-4.67,1.12-5.47C216.56,193.95,216.52,193.88,216.49,193.81z"/>
		<path class="st4" d="M214.8,215.57c0,0-4.49,3.41-9.24,4.16c-0.09-1.66-0.13-3.19-0.09-4.45L214.8,215.57z"/>
		<g>
			<path class="st5" d="M187.25,211.17c-0.07-0.08-0.99-3.13-2.57-2.91c-1.03,0.15-2.72,0.74-2.27,2.1
				c0.18,0.53,3.32,2.38,3.32,2.38L187.25,211.17z"/>
			<path class="st6" d="M215.35,208.98c2.56,1.53,2.35,5.34-0.39,6.52c-0.06,0.02-0.11,0.05-0.17,0.07
				c-4.21,1.69-18.32,1.77-19.58,1.56c-1.26-0.2-9.68-4.13-9.68-4.13s0.58-2.12,1.78-2.46c0,0,9,2.28,9.64,2.13
				c0.64-0.15,14.02-6.49,16.3-5C213.86,208.07,214.59,208.52,215.35,208.98z"/>
		</g>
	</g>
	<g>
		<path class="st13" d="M310.27,108.6h-11.23c-0.47,0-0.86-0.39-0.86-0.86l0,0c0-0.47,0.39-0.86,0.86-0.86h11.23
			c0.47,0,0.86,0.39,0.86,0.86l0,0C311.13,108.21,310.74,108.6,310.27,108.6z"/>
		<path class="st13" d="M310.27,111.95h-11.23c-0.47,0-0.86-0.39-0.86-0.86l0,0c0-0.47,0.39-0.86,0.86-0.86h11.23
			c0.47,0,0.86,0.39,0.86,0.86l0,0C311.13,111.56,310.74,111.95,310.27,111.95z"/>
		<path class="st13" d="M310.27,115.39h-11.23c-0.47,0-0.86-0.39-0.86-0.86l0,0c0-0.47,0.39-0.86,0.86-0.86h11.23
			c0.47,0,0.86,0.39,0.86,0.86l0,0C311.13,115,310.74,115.39,310.27,115.39z"/>
	</g>
	<path class="st13" d="M266.29,196.37h-26.74c-0.63,0-1.14-0.51-1.14-1.14l0,0c0-0.63,0.51-1.14,1.14-1.14h26.74
		c0.63,0,1.14,0.51,1.14,1.14l0,0C267.43,195.86,266.91,196.37,266.29,196.37z"/>
	<path class="st13" d="M135.59,118.25h-26.74c-0.63,0-1.14-0.51-1.14-1.14l0,0c0-0.63,0.51-1.14,1.14-1.14h26.74
		c0.63,0,1.14,0.51,1.14,1.14l0,0C136.72,117.74,136.21,118.25,135.59,118.25z"/>
	<path class="st13" d="M266.29,207.66h-26.74c-0.63,0-1.14-0.51-1.14-1.14l0,0c0-0.63,0.51-1.14,1.14-1.14h26.74
		c0.63,0,1.14,0.51,1.14,1.14l0,0C267.43,207.15,266.91,207.66,266.29,207.66z"/>
	<path class="st13" d="M266.29,202.02h-31.98c-0.63,0-1.14-0.51-1.14-1.14l0,0c0-0.63,0.51-1.14,1.14-1.14h31.98
		c0.63,0,1.14,0.51,1.14,1.14l0,0C267.43,201.51,266.91,202.02,266.29,202.02z"/>
	<g>
		<path class="st13" d="M127.51,125.41h-14.8c-0.55,0-1.01-0.45-1.01-1.01v-0.26c0-0.55,0.45-1.01,1.01-1.01h14.8
			c0.55,0,1.01,0.45,1.01,1.01v0.26C128.52,124.96,128.06,125.41,127.51,125.41z"/>
		<path class="st13" d="M106.7,124.27c0-0.63,0.51-1.14,1.14-1.14c0.63,0,1.14,0.51,1.14,1.14c0,0.63-0.51,1.14-1.14,1.14
			C107.21,125.41,106.7,124.9,106.7,124.27z"/>
	</g>
	<g>
		<path class="st13" d="M130.44,129.94H112.7c-0.55,0-1.01-0.45-1.01-1.01v-0.26c0-0.55,0.45-1.01,1.01-1.01h17.74
			c0.55,0,1.01,0.45,1.01,1.01v0.26C131.45,129.49,131,129.94,130.44,129.94z"/>
		<path class="st13" d="M106.7,128.8c0-0.63,0.51-1.14,1.14-1.14c0.63,0,1.14,0.51,1.14,1.14c0,0.63-0.51,1.14-1.14,1.14
			C107.21,129.94,106.7,129.43,106.7,128.8z"/>
	</g>
	<g>
		<path class="st13" d="M127.51,134.86h-14.8c-0.55,0-1.01-0.45-1.01-1.01v-0.26c0-0.55,0.45-1.01,1.01-1.01h14.8
			c0.55,0,1.01,0.45,1.01,1.01v0.26C128.52,134.4,128.06,134.86,127.51,134.86z"/>
		<path class="st13" d="M106.7,133.72c0-0.63,0.51-1.14,1.14-1.14c0.63,0,1.14,0.51,1.14,1.14c0,0.63-0.51,1.14-1.14,1.14
			C107.21,134.86,106.7,134.35,106.7,133.72z"/>
	</g>
	<g>
		<g>
			<path class="st4" d="M155.09,127.96c-0.2,0.03-0.4,0.04-0.6,0.04c-1.07-0.01-2.08-0.44-2.83-1.21c-1.55-1.58-1.52-4.13,0.07-5.68
				v0c1.58-1.55,4.13-1.52,5.68,0.07c1.55,1.58,1.52,4.13-0.07,5.68C156.72,127.46,155.94,127.84,155.09,127.96z M152.19,121.58
				c-1.32,1.29-1.35,3.42-0.06,4.74c0.63,0.64,1.46,1,2.36,1.01c0.9,0.01,1.74-0.33,2.38-0.95c1.32-1.29,1.35-3.42,0.06-4.74
				C155.64,120.31,153.52,120.29,152.19,121.58L152.19,121.58z"/>
		</g>
		
			<rect x="149.61" y="125.73" transform="matrix(0.6989 0.7152 -0.7152 0.6989 137.0334 -68.5595)" class="st4" width="0.66" height="5.48"/>
		<path class="st4" d="M146.62,131.72L146.62,131.72c-0.23-0.23-0.22-0.61,0.01-0.84l2.31-2.26c0.23-0.23,0.61-0.22,0.84,0.01l0,0
			c0.23,0.23,0.22,0.61-0.01,0.83l-2.31,2.26C147.22,131.95,146.85,131.95,146.62,131.72z"/>
	</g>
	<g>
		<path class="st4" d="M342.29,284.63L342.29,284.63c-0.51,0-1.05-0.37-1.2-0.83l-30.85-93.94c-0.15-0.46,0.14-0.83,0.65-0.84l0,0
			c0.51,0,1.05,0.37,1.2,0.83l30.85,93.94C343.1,284.25,342.81,284.62,342.29,284.63z"/>
		<path class="st4" d="M367.16,284.48L367.16,284.48c-0.51,0-1.05-0.37-1.2-0.83l-30.85-93.94c-0.15-0.46,0.14-0.83,0.65-0.84l0,0
			c0.51,0,1.05,0.37,1.2,0.83l30.85,93.94C367.96,284.11,367.67,284.48,367.16,284.48z"/>
		<path class="st4" d="M340.39,202.81l-24.97,0.14c-0.48,0-0.99-0.35-1.13-0.78l0,0c-0.14-0.43,0.14-0.79,0.62-0.79l24.97-0.14
			c0.48,0,0.99,0.35,1.13,0.78l0,0C341.15,202.45,340.87,202.81,340.39,202.81z"/>
		<path class="st4" d="M345.77,219.21l-24.97,0.14c-0.48,0-0.99-0.35-1.13-0.78l0,0c-0.14-0.43,0.14-0.79,0.62-0.79l24.97-0.14
			c0.48,0,0.99,0.35,1.13,0.78l0,0C346.53,218.85,346.25,219.21,345.77,219.21z"/>
		<path class="st4" d="M350.96,235.01l-24.97,0.14c-0.48,0-0.99-0.35-1.13-0.78l0,0c-0.14-0.43,0.14-0.79,0.62-0.79l24.97-0.14
			c0.48,0,0.99,0.35,1.13,0.78l0,0C351.72,234.65,351.44,235,350.96,235.01z"/>
		<path class="st4" d="M356.8,252.79l-24.97,0.14c-0.48,0-0.99-0.35-1.13-0.78l0,0c-0.14-0.43,0.14-0.79,0.62-0.79l24.97-0.14
			c0.48,0,0.99,0.35,1.13,0.78l0,0C357.56,252.43,357.28,252.79,356.8,252.79z"/>
		<path class="st4" d="M362.91,271.4l-24.97,0.14c-0.48,0-0.99-0.35-1.13-0.78l0,0c-0.14-0.43,0.14-0.79,0.62-0.79l24.97-0.14
			c0.48,0,0.99,0.35,1.13,0.78l0,0C363.67,271.04,363.4,271.4,362.91,271.4z"/>
	</g>
	<g>
		<path class="st4" d="M309.16,146.84L309.16,146.84c-0.2,0.04-0.39-0.09-0.42-0.29l-0.4-2.06c-0.04-0.2,0.09-0.39,0.29-0.42l0,0
			c0.2-0.04,0.39,0.09,0.42,0.29l0.4,2.06C309.49,146.61,309.36,146.8,309.16,146.84z"/>
		
			<rect x="308.12" y="140.55" transform="matrix(0.9818 -0.19 0.19 0.9818 -21.379 61.1534)" class="st4" width="0.25" height="3.04"/>
		<path class="st5" d="M308.08,123.77c0,0-0.24-2.05-0.73-2.84c-0.5-0.79-2.38-1.29-2.5-1.17c-0.37,0.36,1.09,1.62,1.15,2.08
			c0.06,0.47-0.74,0.14-0.36,1.05c0.32,0.77,1.39,1.76,1.39,1.76L308.08,123.77z"/>
		<path class="st7" d="M307.17,123.54c0.69-0.54,0.83-0.53,0.83-0.53s6.35,5.5,6.97,5.99c0.62,0.49,10.15,3.26,10.15,3.26l1.52,7.75
			c0,0-12.9-6.23-14.44-7.5c-2.55-2.1-5.76-7.98-5.76-7.98S306.63,123.96,307.17,123.54z"/>
		<path class="st4" d="M325.33,198.04c0,0-0.11,2.65-0.62,3.29l-7.08,0.04c0.05-0.27,0.08-0.9,1.06-1.08
			c1.24-0.22,2.69-1.08,3.44-2.71C322.92,195.86,325.33,198.04,325.33,198.04z"/>
		<path class="st4" d="M339.22,197.66c0,0,0.49,3.52-0.18,3.58c-0.09,0.01-2.85,0.05-4.05,0.07c-1.41,0.02-3.72-0.03-3.72-0.03
			c-0.29,0.01-0.48-0.3-0.33-0.55c0.16-0.27,0.47-0.57,1.06-0.68c1.23-0.24,3.29-1.14,4.01-2.79
			C336.77,195.53,339.22,197.66,339.22,197.66z"/>
		<path class="st4" d="M321.65,161.59c0,0,1.97,6.89,7.61,18.84c5.64,11.96,5.88,17.72,5.88,17.72s0.85,0.3,1.99,0.18
			c1.23-0.13,2.09-0.68,2.09-0.68s-0.37-14.23-3.03-20.27c-2.66-6.03-3.21-22.55-3.21-22.55L321.65,161.59z"/>
		<path class="st6" d="M318.49,155.66c0,0-0.16,10.66,1.69,23.75c1.84,13.09,0.98,19.18,0.98,19.18s0.49,0.36,1.99,0.35
			c1.76-0.01,2.66-0.73,2.66-0.73s2.64-13.1,1.88-19.65c-0.76-6.55,3.62-22.49,3.62-22.49L318.49,155.66z"/>
		<path class="st5" d="M327.21,130.71l-2.08,1.54l-3.01-0.63c0.04-0.27,0.24-1.41,0.42-2.44c0.01-0.06,0.02-0.12,0.03-0.18
			c0.16-0.88,0.29-1.63,0.29-1.63l2.81-1.4l1.05-0.52c0,0.02-0.08,0.97-0.09,1.11C326.43,129.03,327.21,130.71,327.21,130.71z"/>
		<path class="st3" d="M333.18,156.98c-0.68,3.12-15.26,1.75-15.07-0.15c0.01-0.06,0.05-0.94,0.1-2.13c0.11-2.57,0.28-6.58,0.3-6.89
			c0-0.01,0-0.01,0-0.02c0.26-2.65,0.51-5.24,0.53-6.93c0.01-1.47,0.22-2.97,0.49-4.33c0.25-1.26,0.55-2.4,0.82-3.29
			c0.19-0.63,0.53-1.18,0.99-1.61c0.33-0.31,0.71-0.56,1.14-0.72c0.12-0.05,0.23-0.09,0.35-0.12c1.72-0.5,4.09-1.11,4.73-0.93
			c1.74,0.51,3.04,3.58,3.96,7.49C333.22,144.67,333.62,154.95,333.18,156.98z"/>
		<path class="st8" d="M326.41,126.6c-0.62,1.18-2.92,2.2-3.88,2.58c0.01-0.06,0.02-0.12,0.03-0.18c0.16-0.88,0.29-1.63,0.29-1.63
			l2.81-1.4C326.29,125.95,326.67,126.11,326.41,126.6z"/>
		<path class="st5" d="M321.49,127.2c0,0,5.08,1.58,6.01-1.59c0.94-3.18,2.22-5.11-0.98-6.26c-3.2-1.15-4.19-0.12-4.76,0.86
			C321.19,121.2,320.19,126.71,321.49,127.2z"/>
		<path class="st4" d="M321.96,119.91c0,0,0.32,3.7,1.09,3.53c0.76-0.16,1.46-0.28,1.35,0.83c-0.11,1.11-1.17,2.4,1.18,2.6
			c2.36,0.2,5.74-5.88,5.09-7.03C328.8,116.53,319.26,115.86,321.96,119.91z"/>
		<path class="st7" d="M318.2,154.7c0.11-2.57,0.28-6.58,0.3-6.89c0-0.01,0-0.01,0-0.02l8.62-5.15
			C327.12,142.64,327.45,154.66,318.2,154.7z"/>
		<path class="st5" d="M311.35,143.92c0,0-1.75-1.18-2.08-1.29c-0.33-0.1-1.42-0.22-1.47-0.13c-0.05,0.09-0.2,0.35-0.01,0.44
			c0.19,0.09,0.43,0.06,0.36,0.12c-0.07,0.06-0.79-0.28-0.95,0.09c-0.17,0.37-0.31,1.62,0.53,1.99c0.84,0.38,2.91,0.04,3.06,0.08
			C312.05,145.59,311.35,143.92,311.35,143.92z"/>
		<path class="st3" d="M311.33,143.6c0,0,8.55,1.45,9.3,1.08c1.21-0.59-0.47-9.26-0.47-9.26s-0.07-1.96,2.22-2.43
			c1.99-0.4,3.92,1.09,3.92,1.09s1.75,1.57,1.53,3.3c-0.5,3.85-1.27,11.68-3.84,12.88c-3.32,1.55-12.93-4.29-12.93-4.29
			s-0.32-0.39-0.27-1.12C310.83,144.21,311.33,143.6,311.33,143.6z"/>
		<path class="st5" d="M305.59,122.78c0,0-0.55-1.09-0.63-1.29c-0.09-0.2,0.13-0.16,0.34-0.05c0.21,0.11,0.5,0.74,0.82,0.67
			C306.37,122.05,305.59,122.78,305.59,122.78z"/>
	</g>
</g>
</svg>
