<?xml version="1.0" encoding="utf-8"?>
<!-- Generator: Adobe Illustrator 24.2.3, SVG Export Plug-In . SVG Version: 6.00 Build 0)  -->
<svg version="1.1" xmlns="http://www.w3.org/2000/svg" xmlns:xlink="http://www.w3.org/1999/xlink" x="0px" y="0px"
	 viewBox="0 0 750 500" style="enable-background:new 0 0 750 500;" xml:space="preserve">
<style type="text/css">
	.st0{fill:#0D6EFD;}
	.st1{fill:none;stroke:#FCFFFE;stroke-miterlimit:10;}
	.st2{fill:#FCFFFE;}
	.st3{fill:#FF2E93;}
</style>
<g id="Background">
	<rect id="XMLID_2730_" class="st0" width="750" height="500"/>
</g>
<g id="Elements">
	
		<rect id="XMLID_181_" x="105.58" y="35" transform="matrix(-0.7071 -0.7071 0.7071 -0.7071 160.711 146.9935)" class="st1" width="10.43" height="10.43"/>
	
		<rect id="XMLID_224_" x="124.64" y="35" transform="matrix(-0.7071 -0.7071 0.7071 -0.7071 193.2494 160.4713)" class="st1" width="10.43" height="10.43"/>
	
		<rect id="XMLID_225_" x="143.71" y="35" transform="matrix(-0.7071 -0.7071 0.7071 -0.7071 225.7879 173.9492)" class="st1" width="10.43" height="10.43"/>
	<path id="XMLID_37_" class="st2" d="M750,103.5c-10.4-8-19.75-19.37-29.02-31.41c-15.32-19.89-36.28-42.31-62.54-39.17
		c-10.71,1.28-20.19,6.87-29.36,12.26c-2.69,1.58-5.48,3.22-8.24,4.72c-44.37,24.04-103.93,19.77-151.73-10.89
		C458.26,32.06,440.85,18.76,430.7,0h-2.27c10.29,19.66,28.39,33.51,39.61,40.71c48.4,31.04,108.76,35.34,153.76,10.96
		c2.79-1.51,5.59-3.16,8.3-4.75c9-5.29,18.3-10.77,28.59-12c25.25-3.03,45.71,18.93,60.71,38.4c7.82,10.16,18.01,23.37,30.6,32.58
		V103.5z"/>
	<path id="XMLID_42_" class="st2" d="M514.16,487.5c-4.89-38.99-43.74-79.7-88.36-75.85c-15.63,1.36-29.65,7.81-43.2,14.05
		c-4.48,2.06-9.11,4.2-13.72,6.11c-59.46,24.65-136.48,16.91-191.67-19.26c-7.43-4.87-14.72-10.35-21.78-15.65
		c-17.69-13.29-35.98-27.04-58.21-32.56c-38.67-9.61-75.57,8.89-97.23,23.55v2.42c21.19-14.57,58.14-33.63,96.75-24.03
		c21.83,5.43,39.96,19.05,57.49,32.22c7.08,5.32,14.4,10.82,21.88,15.73c55.72,36.52,133.49,44.33,193.53,19.44
		c4.64-1.92,9.29-4.07,13.79-6.14c13.4-6.17,27.25-12.55,42.53-13.88c43.53-3.74,81.43,36.02,86.2,74.1
		c0.51,4.11,0.74,8.2,0.74,12.26h2C514.92,495.86,514.69,491.69,514.16,487.5z"/>
	<circle id="XMLID_183_" class="st1" cx="707.94" cy="473.44" r="5.02"/>
	<circle id="XMLID_380_" class="st1" cx="690.25" cy="473.44" r="5.02"/>
	<circle id="XMLID_381_" class="st1" cx="672.57" cy="473.44" r="5.02"/>
	<g id="XMLID_186_">
		<path id="XMLID_185_" class="st2" d="M21.27,20.26c0,0.94-0.76,1.7-1.7,1.7c-0.94,0-1.7-0.76-1.7-1.7c0-0.94,0.76-1.7,1.7-1.7
			C20.5,18.55,21.27,19.32,21.27,20.26z"/>
		<path id="XMLID_187_" class="st2" d="M36.19,20.26c0,0.94-0.76,1.7-1.7,1.7s-1.7-0.76-1.7-1.7c0-0.94,0.76-1.7,1.7-1.7
			S36.19,19.32,36.19,20.26z"/>
		<path id="XMLID_188_" class="st2" d="M51.11,20.26c0,0.94-0.76,1.7-1.7,1.7c-0.94,0-1.7-0.76-1.7-1.7c0-0.94,0.76-1.7,1.7-1.7
			C50.35,18.55,51.11,19.32,51.11,20.26z"/>
		<path id="XMLID_207_" class="st3" d="M66.03,20.26c0,0.94-0.76,1.7-1.7,1.7c-0.94,0-1.7-0.76-1.7-1.7c0-0.94,0.76-1.7,1.7-1.7
			C65.27,18.55,66.03,19.32,66.03,20.26z"/>
		<path id="XMLID_363_" class="st2" d="M21.27,31.29c0,0.94-0.76,1.7-1.7,1.7c-0.94,0-1.7-0.76-1.7-1.7s0.76-1.7,1.7-1.7
			C20.5,29.58,21.27,30.35,21.27,31.29z"/>
		<path id="XMLID_362_" class="st3" d="M36.19,31.29c0,0.94-0.76,1.7-1.7,1.7s-1.7-0.76-1.7-1.7s0.76-1.7,1.7-1.7
			S36.19,30.35,36.19,31.29z"/>
		<path id="XMLID_221_" class="st2" d="M51.11,31.29c0,0.94-0.76,1.7-1.7,1.7c-0.94,0-1.7-0.76-1.7-1.7s0.76-1.7,1.7-1.7
			C50.35,29.58,51.11,30.35,51.11,31.29z"/>
		<path id="XMLID_220_" class="st2" d="M66.03,31.29c0,0.94-0.76,1.7-1.7,1.7c-0.94,0-1.7-0.76-1.7-1.7s0.76-1.7,1.7-1.7
			C65.27,29.58,66.03,30.35,66.03,31.29z"/>
		<path id="XMLID_367_" class="st2" d="M21.27,42.32c0,0.94-0.76,1.7-1.7,1.7c-0.94,0-1.7-0.76-1.7-1.7c0-0.94,0.76-1.7,1.7-1.7
			C20.5,40.61,21.27,41.38,21.27,42.32z"/>
		<path id="XMLID_366_" class="st2" d="M36.19,42.32c0,0.94-0.76,1.7-1.7,1.7s-1.7-0.76-1.7-1.7c0-0.94,0.76-1.7,1.7-1.7
			S36.19,41.38,36.19,42.32z"/>
		<path id="XMLID_365_" class="st2" d="M51.11,42.32c0,0.94-0.76,1.7-1.7,1.7c-0.94,0-1.7-0.76-1.7-1.7c0-0.94,0.76-1.7,1.7-1.7
			C50.35,40.61,51.11,41.38,51.11,42.32z"/>
		<path id="XMLID_364_" class="st2" d="M66.03,42.32c0,0.94-0.76,1.7-1.7,1.7c-0.94,0-1.7-0.76-1.7-1.7c0-0.94,0.76-1.7,1.7-1.7
			C65.27,40.61,66.03,41.38,66.03,42.32z"/>
		<path id="XMLID_371_" class="st3" d="M21.27,53.35c0,0.94-0.76,1.7-1.7,1.7c-0.94,0-1.7-0.76-1.7-1.7s0.76-1.7,1.7-1.7
			C20.5,51.64,21.27,52.41,21.27,53.35z"/>
		<path id="XMLID_370_" class="st2" d="M36.19,53.35c0,0.94-0.76,1.7-1.7,1.7s-1.7-0.76-1.7-1.7s0.76-1.7,1.7-1.7
			S36.19,52.41,36.19,53.35z"/>
		<path id="XMLID_369_" class="st2" d="M51.11,53.35c0,0.94-0.76,1.7-1.7,1.7c-0.94,0-1.7-0.76-1.7-1.7s0.76-1.7,1.7-1.7
			C50.35,51.64,51.11,52.41,51.11,53.35z"/>
		<path id="XMLID_368_" class="st2" d="M66.03,53.35c0,0.94-0.76,1.7-1.7,1.7c-0.94,0-1.7-0.76-1.7-1.7s0.76-1.7,1.7-1.7
			C65.27,51.64,66.03,52.41,66.03,53.35z"/>
		<path id="XMLID_378_" class="st2" d="M21.27,64.38c0,0.94-0.76,1.7-1.7,1.7c-0.94,0-1.7-0.76-1.7-1.7c0-0.94,0.76-1.7,1.7-1.7
			C20.5,62.67,21.27,63.44,21.27,64.38z"/>
		<path id="XMLID_377_" class="st2" d="M36.19,64.38c0,0.94-0.76,1.7-1.7,1.7s-1.7-0.76-1.7-1.7c0-0.94,0.76-1.7,1.7-1.7
			S36.19,63.44,36.19,64.38z"/>
		<path id="XMLID_376_" class="st3" d="M51.11,64.38c0,0.94-0.76,1.7-1.7,1.7c-0.94,0-1.7-0.76-1.7-1.7c0-0.94,0.76-1.7,1.7-1.7
			C50.35,62.67,51.11,63.44,51.11,64.38z"/>
		<path id="XMLID_375_" class="st2" d="M66.03,64.38c0,0.94-0.76,1.7-1.7,1.7c-0.94,0-1.7-0.76-1.7-1.7c0-0.94,0.76-1.7,1.7-1.7
			C65.27,62.67,66.03,63.44,66.03,64.38z"/>
	</g>
</g>
</svg>
